<svg xmlns="http://www.w3.org/2000/svg" viewBox="0 0 1292 962" width="1600" height="1191" font-family="ui-sans-serif, system-ui, 'Segoe UI', Roboto, Arial, sans-serif"><title>Сравнение с зондированием ВМО 03808 30.09.2026 11:29 UTC, +6 ч</title><rect x="0" y="0" width="1292" height="962" fill="#ffffff"/><g><line x1="14" y1="22" x2="36" y2="22" stroke="#2a78d6" stroke-width="3" stroke-linecap="round"/><circle cx="25" cy="22" r="4.5" fill="#2a78d6" stroke="#ffffff" stroke-width="1.5"/><text x="46" y="22" font-size="16" font-weight="700" fill="#334155" dominant-baseline="central">Факт: зондирование ВМО 03808</text><text x="46" y="44" font-size="12" fill="#64748b" dominant-baseline="central">выпуск 30.09.2026 11:29 UTC · 50,22 с.ш., 5,33 з.д.</text></g><g transform="translate(46 104)"><rect x="-46" y="-46" width="632" height="662" fill="#ffffff"/><g fill="none"><circle cx="270" cy="270" r="27" stroke="#e6ebf2" stroke-width="0.7"/><circle cx="270" cy="270" r="54" stroke="#e6ebf2" stroke-width="0.7"/><circle cx="270" cy="270" r="81" stroke="#e6ebf2" stroke-width="0.7"/><circle cx="270" cy="270" r="108" stroke="#e6ebf2" stroke-width="0.7"/><circle cx="270" cy="270" r="135" stroke="#b9c5d3" stroke-width="1.6"/><circle cx="270" cy="270" r="162" stroke="#e6ebf2" stroke-width="0.7"/><circle cx="270" cy="270" r="189" stroke="#e6ebf2" stroke-width="0.7"/><circle cx="270" cy="270" r="216" stroke="#e6ebf2" stroke-width="0.7"/><circle cx="270" cy="270" r="243" stroke="#e6ebf2" stroke-width="0.7"/><circle cx="270" cy="270" r="270" stroke="#8fa0b3" stroke-width="1.2"/></g><g><line x1="270" y1="270" x2="270" y2="-18" stroke="#b9c5d3" stroke-width="1"/><line x1="270" y1="270" x2="405" y2="36.17" stroke="#d5dde6" stroke-width="0.6"/><line x1="270" y1="270" x2="503.83" y2="135" stroke="#d5dde6" stroke-width="0.6"/><line x1="270" y1="270" x2="558" y2="270" stroke="#b9c5d3" stroke-width="1"/><line x1="270" y1="270" x2="503.83" y2="405" stroke="#d5dde6" stroke-width="0.6"/><line x1="270" y1="270" x2="405" y2="503.83" stroke="#d5dde6" stroke-width="0.6"/><line x1="270" y1="270" x2="270" y2="558" stroke="#b9c5d3" stroke-width="1"/><line x1="270" y1="270" x2="135" y2="503.83" stroke="#d5dde6" stroke-width="0.6"/><line x1="270" y1="270" x2="36.17" y2="405" stroke="#d5dde6" stroke-width="0.6"/><line x1="270" y1="270" x2="-18" y2="270" stroke="#b9c5d3" stroke-width="1"/><line x1="270" y1="270" x2="36.17" y2="135" stroke="#d5dde6" stroke-width="0.6"/><line x1="270" y1="270" x2="135" y2="36.17" stroke="#d5dde6" stroke-width="0.6"/></g><g stroke="#94a3b8"><line x1="270" y1="0" x2="270" y2="-10" stroke-width="1.2"/><line x1="293.53" y1="1.03" x2="293.79" y2="-1.96" stroke-width="0.7"/><line x1="316.89" y1="4.1" x2="317.41" y2="1.15" stroke-width="0.7"/><line x1="339.88" y1="9.2" x2="341.43" y2="3.4" stroke-width="0.7"/><line x1="362.35" y1="16.28" x2="363.37" y2="13.46" stroke-width="0.7"/><line x1="384.11" y1="25.3" x2="385.37" y2="22.58" stroke-width="0.7"/><line x1="405" y1="36.17" x2="408" y2="30.98" stroke-width="0.7"/><line x1="424.87" y1="48.83" x2="426.59" y2="46.37" stroke-width="0.7"/><line x1="443.55" y1="63.17" x2="445.48" y2="60.87" stroke-width="0.7"/><line x1="460.92" y1="79.08" x2="467.99" y2="72.01" stroke-width="1.2"/><line x1="476.83" y1="96.45" x2="479.13" y2="94.52" stroke-width="0.7"/><line x1="491.17" y1="115.13" x2="493.63" y2="113.41" stroke-width="0.7"/><line x1="503.83" y1="135" x2="509.02" y2="132" stroke-width="0.7"/><line x1="514.7" y1="155.89" x2="517.42" y2="154.63" stroke-width="0.7"/><line x1="523.72" y1="177.65" x2="526.54" y2="176.63" stroke-width="0.7"/><line x1="530.8" y1="200.12" x2="536.6" y2="198.57" stroke-width="0.7"/><line x1="535.9" y1="223.11" x2="538.85" y2="222.59" stroke-width="0.7"/><line x1="538.97" y1="246.47" x2="541.96" y2="246.21" stroke-width="0.7"/><line x1="540" y1="270" x2="550" y2="270" stroke-width="1.2"/><line x1="538.97" y1="293.53" x2="541.96" y2="293.79" stroke-width="0.7"/><line x1="535.9" y1="316.89" x2="538.85" y2="317.41" stroke-width="0.7"/><line x1="530.8" y1="339.88" x2="536.6" y2="341.43" stroke-width="0.7"/><line x1="523.72" y1="362.35" x2="526.54" y2="363.37" stroke-width="0.7"/><line x1="514.7" y1="384.11" x2="517.42" y2="385.37" stroke-width="0.7"/><line x1="503.83" y1="405" x2="509.02" y2="408" stroke-width="0.7"/><line x1="491.17" y1="424.87" x2="493.63" y2="426.59" stroke-width="0.7"/><line x1="476.83" y1="443.55" x2="479.13" y2="445.48" stroke-width="0.7"/><line x1="460.92" y1="460.92" x2="467.99" y2="467.99" stroke-width="1.2"/><line x1="443.55" y1="476.83" x2="445.48" y2="479.13" stroke-width="0.7"/><line x1="424.87" y1="491.17" x2="426.59" y2="493.63" stroke-width="0.7"/><line x1="405" y1="503.83" x2="408" y2="509.02" stroke-width="0.7"/><line x1="384.11" y1="514.7" x2="385.37" y2="517.42" stroke-width="0.7"/><line x1="362.35" y1="523.72" x2="363.37" y2="526.54" stroke-width="0.7"/><line x1="339.88" y1="530.8" x2="341.43" y2="536.6" stroke-width="0.7"/><line x1="316.89" y1="535.9" x2="317.41" y2="538.85" stroke-width="0.7"/><line x1="293.53" y1="538.97" x2="293.79" y2="541.96" stroke-width="0.7"/><line x1="270" y1="540" x2="270" y2="550" stroke-width="1.2"/><line x1="246.47" y1="538.97" x2="246.21" y2="541.96" stroke-width="0.7"/><line x1="223.11" y1="535.9" x2="222.59" y2="538.85" stroke-width="0.7"/><line x1="200.12" y1="530.8" x2="198.57" y2="536.6" stroke-width="0.7"/><line x1="177.65" y1="523.72" x2="176.63" y2="526.54" stroke-width="0.7"/><line x1="155.89" y1="514.7" x2="154.63" y2="517.42" stroke-width="0.7"/><line x1="135" y1="503.83" x2="132" y2="509.02" stroke-width="0.7"/><line x1="115.13" y1="491.17" x2="113.41" y2="493.63" stroke-width="0.7"/><line x1="96.45" y1="476.83" x2="94.52" y2="479.13" stroke-width="0.7"/><line x1="79.08" y1="460.92" x2="72.01" y2="467.99" stroke-width="1.2"/><line x1="63.17" y1="443.55" x2="60.87" y2="445.48" stroke-width="0.7"/><line x1="48.83" y1="424.87" x2="46.37" y2="426.59" stroke-width="0.7"/><line x1="36.17" y1="405" x2="30.98" y2="408" stroke-width="0.7"/><line x1="25.3" y1="384.11" x2="22.58" y2="385.37" stroke-width="0.7"/><line x1="16.28" y1="362.35" x2="13.46" y2="363.37" stroke-width="0.7"/><line x1="9.2" y1="339.88" x2="3.4" y2="341.43" stroke-width="0.7"/><line x1="4.1" y1="316.89" x2="1.15" y2="317.41" stroke-width="0.7"/><line x1="1.03" y1="293.53" x2="-1.96" y2="293.79" stroke-width="0.7"/><line x1="0" y1="270" x2="-10" y2="270" stroke-width="1.2"/><line x1="1.03" y1="246.47" x2="-1.96" y2="246.21" stroke-width="0.7"/><line x1="4.1" y1="223.11" x2="1.15" y2="222.59" stroke-width="0.7"/><line x1="9.2" y1="200.12" x2="3.4" y2="198.57" stroke-width="0.7"/><line x1="16.28" y1="177.65" x2="13.46" y2="176.63" stroke-width="0.7"/><line x1="25.3" y1="155.89" x2="22.58" y2="154.63" stroke-width="0.7"/><line x1="36.17" y1="135" x2="30.98" y2="132" stroke-width="0.7"/><line x1="48.83" y1="115.13" x2="46.37" y2="113.41" stroke-width="0.7"/><line x1="63.17" y1="96.45" x2="60.87" y2="94.52" stroke-width="0.7"/><line x1="79.08" y1="79.08" x2="72.01" y2="72.01" stroke-width="1.2"/><line x1="96.45" y1="63.17" x2="94.52" y2="60.87" stroke-width="0.7"/><line x1="115.13" y1="48.83" x2="113.41" y2="46.37" stroke-width="0.7"/><line x1="135" y1="36.17" x2="132" y2="30.98" stroke-width="0.7"/><line x1="155.89" y1="25.3" x2="154.63" y2="22.58" stroke-width="0.7"/><line x1="177.65" y1="16.28" x2="176.63" y2="13.46" stroke-width="0.7"/><line x1="200.12" y1="9.2" x2="198.57" y2="3.4" stroke-width="0.7"/><line x1="223.11" y1="4.1" x2="222.59" y2="1.15" stroke-width="0.7"/><line x1="246.47" y1="1.03" x2="246.21" y2="-1.96" stroke-width="0.7"/></g><g text-anchor="middle" dominant-baseline="central"><text x="270" y="-26" fill="#334155" font-size="16" font-weight="700">С</text><text x="418" y="13.66" fill="#94a3b8" font-size="9" font-weight="500">30</text><text x="526.34" y="122" fill="#94a3b8" font-size="9" font-weight="500">60</text><text x="566" y="270" fill="#334155" font-size="16" font-weight="700">В</text><text x="526.34" y="418" fill="#94a3b8" font-size="9" font-weight="500">120</text><text x="418" y="526.34" fill="#94a3b8" font-size="9" font-weight="500">150</text><text x="270" y="566" fill="#334155" font-size="16" font-weight="700">Ю</text><text x="122" y="526.34" fill="#94a3b8" font-size="9" font-weight="500">210</text><text x="13.66" y="418" fill="#94a3b8" font-size="9" font-weight="500">240</text><text x="-26" y="270" fill="#334155" font-size="16" font-weight="700">З</text><text x="13.66" y="122" fill="#94a3b8" font-size="9" font-weight="500">300</text><text x="122" y="13.66" fill="#94a3b8" font-size="9" font-weight="500">330</text></g><g fill="#94a3b8" font-size="8" text-anchor="start" dominant-baseline="central"><text x="273" y="216">40</text><text x="273" y="162">80</text><text x="273" y="108">120</text><text x="273" y="54">160</text></g><g fill="none" stroke-linejoin="round" stroke-linecap="round"></g><g font-size="9" fill="#334155" dominant-baseline="hanging"></g><g fill="none" stroke-linecap="round" stroke-linejoin="round"><path d="M270 270 L270.04 269.94 L270.06 269.85 L270.08 269.7 L270.1 269.56 L270.12 269.41 L270.14 269.28 L270.17 269.17 L270.19 269.04 L270.23 268.9 L270.28 268.72 L270.32 268.54 L270.35 268.39 L270.39 268.26 L270.43 268.09 L270.48 267.93 L270.54 267.78 L270.6 267.64 L270.68 267.51 L270.76 267.37 L270.84 267.24 L270.9 267.12 L270.97 267.01 L271.03 266.94 L271.1 266.8 L271.16 266.65 L271.23 266.49 L271.32 266.34 L271.43 266.22 L271.51 266.1 L271.6 265.96 L271.69 265.83 L271.78 265.69 L271.86 265.57 L271.95 265.45 L272.03 265.32 L272.16 265.14 L272.25 265 L272.33 264.87 L272.46 264.69 L272.55 264.57 L272.64 264.43 L272.74 264.3 L272.87 264.13 L273.01 263.95 L273.11 263.81 L273.27 263.63 L273.39 263.5 L273.53 263.33 L273.66 263.15 L273.8 262.97 L273.9 262.84 L274.01 262.66 L274.12 262.51 L274.24 262.34 L274.34 262.21 L274.43 262 L274.54 261.79 L274.63 261.61 L274.73 261.49 L274.84 261.35 L274.94 261.2 L275.03 261.05 L275.07 260.96 L275.19 260.8 L275.28 260.63 L275.37 260.5 L275.46 260.35 L275.55 260.21 L275.6 260.12 L275.69 259.96 L275.75 259.87 L275.81 259.79 L275.88 259.65 L275.97 259.55 L276.01 259.47 L276.06 259.4 L276.12 259.31 L276.17 259.23 L276.21 259.16 L276.24 259.08 L276.28 259.01 L276.37 258.89 L276.42 258.78 L276.44 258.71 L276.49 258.63 L276.58 258.54 L276.66 258.45 L276.74 258.35 L276.85 258.23 L276.96 258.11 L277.07 257.97 L277.22 257.79 L277.31 257.67 L277.44 257.46 L277.61 257.28 L277.74 257.15 L277.86 257 L277.96 256.85 L278.01 256.74 L278.1 256.61 L278.16 256.49 L278.22 256.36 L278.27 256.24 L278.34 256.14 L278.36 256.08 L278.4 256 L278.46 255.91 L278.55 255.78 L278.63 255.66 L278.7 255.52 L278.79 255.39 L278.84 255.27 L278.88 255.18 L278.94 255.07 L279.02 254.95 L279.1 254.83 L279.14 254.71 L279.21 254.58 L279.26 254.44 L279.33 254.23 L279.4 254.1 L279.46 253.96 L279.49 253.81 L279.54 253.69 L279.61 253.57 L279.69 253.44 L279.77 253.26 L279.87 253.06 L279.91 252.94 L279.95 252.76 L279.99 252.58 L280.03 252.35 L280.07 252.13 L280.12 251.96 L280.17 251.83 L280.21 251.72 L280.28 251.54 L280.36 251.38 L280.41 251.21 L280.48 251.05 L280.56 250.87 L280.65 250.69 L280.75 250.51 L280.82 250.31 L280.9 250.13 L280.94 250 L281.02 249.8 L281.07 249.68 L281.14 249.49 L281.19 249.37 L281.24 249.25 L281.31 249.08 L281.38 248.87 L281.45 248.69 L281.51 248.48 L281.56 248.34 L281.6 248.22 L281.62 248.12 L281.66 247.98 L281.75 247.77 L281.8 247.67 L281.83 247.53 L281.87 247.38 L281.91 247.23 L281.97 247.07 L282.08 246.81 L282.21 246.59 L282.33 246.35 L282.44 246.08 L282.53 245.79 L282.65 245.49 L282.77 245.19 L282.85 244.98 L282.96 244.66 L283.06 244.35 L283.2 244.05 L283.33 243.78 L283.47 243.46 L283.56 243.24 L283.7 242.92 L283.85 242.64 L283.93 242.43 L284.08 242.08 L284.2 241.75 L284.38 241.27 L284.51 240.94 L284.65 240.58 L284.81 240.23 L284.93 239.87 L285.04 239.51 L285.16 239.14 L285.27 238.75 L285.36 238.4 L285.47 238.07 L285.6 237.72 L285.77 237.24 L285.91 236.79 L286.05 236.31 L286.2 235.86 L286.31 235.49 L286.47 235.03 L286.58 234.54 L286.71 234.09 L286.79 233.74 L286.87 233.4 L286.96 233.04 L287.09 232.56 L287.18 232.23 L287.27 231.75 L287.39 231.28 L287.51 230.8 L287.62 230.3 L287.7 229.96 L287.8 229.48 L287.92 229.04 L288.04 228.58 L288.2 227.97 L288.34 227.49 L288.42 227.15 L288.53 226.71 L288.65 226.23 L288.74 225.78 L288.85 225.3 L288.96 224.84 L289.02 224.51 L289.11 224.16 L289.17 223.77 L289.22 223.42 L289.29 222.94 L289.37 222.57 L289.44 222.19 L289.5 221.82 L289.56 221.46 L289.63 221.11 L289.7 220.74 L289.77 220.38 L289.85 220 L289.91 219.65 L289.98 219.28 L290.06 218.92 L290.11 218.56 L290.17 218.32 L290.24 217.94 L290.3 217.58 L290.37 217.21 L290.44 216.97 L290.51 216.58 L290.56 216.2 L290.64 215.82 L290.71 215.43 L290.79 215.04 L290.85 214.65 L290.93 214.28 L290.98 213.9 L291.04 213.51 L291.11 213.14 L291.17 212.75 L291.23 212.35 L291.3 211.98 L291.38 211.59 L291.44 211.23 L291.5 210.84 L291.55 210.58 L291.58 210.33 L291.64 209.95 L291.71 209.55 L291.77 209.17 L291.84 208.78 L291.9 208.4 L291.96 208.01 L292 207.61 L292.06 207.22 L292.12 206.83 L292.15 206.57 L292.2 206.18 L292.26 205.79 L292.33 205.4 L292.38 205.15 L292.43 204.79 L292.5 204.36 L292.57 203.99 L292.62 203.72 L292.69 203.31 L292.76 202.92 L292.83 202.53 L292.9 202.14 L292.98 201.75 L293.04 201.35 L293.11 200.94 L293.18 200.55 L293.22 200.28 L293.27 199.87 L293.34 199.47 L293.41 199.05 L293.5 198.64 L293.58 198.22 L293.68 197.83 L293.79 197.41 L293.88 197 L293.98 196.6 L294.08 196.18 L294.18 195.77 L294.28 195.37 L294.38 194.93 L294.46 194.53 L294.55 194.12 L294.62 193.7 L294.7 193.28 L294.77 192.86 L294.85 192.44 L294.94 192 L295 191.57 L295.07 191.13 L295.11 190.71 L295.17 190.26 L295.22 189.84 L295.28 189.39 L295.33 188.95 L295.36 188.5 L295.42 188.07 L295.46 187.62 L295.51 187.17 L295.56 186.7 L295.59 186.24 L295.64 185.78 L295.68 185.33 L295.74 184.88 L295.79 184.43 L295.86 184 L295.91 183.53 L295.98 183.08 L296.03 182.62 L296.1 182.15 L296.15 181.7 L296.21 181.23 L296.27 180.78 L296.34 180.33 L296.39 179.87 L296.43 179.57 L296.46 179.27 L296.51 178.8 L296.55 178.34 L296.59 177.9 L296.63 177.45 L296.66 177.01 L296.68 176.71 L296.7 176.28 L296.75 175.84 L296.78 175.41 L296.84 174.96 L296.84 174.67 L296.86 174.21 L296.89 173.76 L296.92 173.32 L296.95 172.87 L296.99 172.4 L297.03 171.95 L297.07 171.5 L297.12 171.04 L297.16 170.59 L297.21 170.14 L297.25 169.82 L297.29 169.39 L297.31 168.92 L297.37 168.46 L297.42 167.85 L297.47 167.4 L297.54 166.98 L297.6 166.56 L297.67 166.14 L297.72 165.72 L297.8 165.33 L297.86 164.93 L297.92 164.52 L297.96 164.13 L298.02 163.74 L298.06 163.32 L298.12 162.91 L298.18 162.49 L298.23 162.07 L298.29 161.68 L298.39 161.17 L298.44 160.81 L298.51 160.45 L298.56 160.1 L298.61 159.74 L298.66 159.29 L298.72 158.93 L298.78 158.59 L298.85 158.24 L298.92 157.9 L298.98 157.57 L299.07 157.22 L299.14 156.87 L299.22 156.54 L299.28 156.18 L299.36 155.84 L299.44 155.51 L299.53 155.15 L299.64 154.8 L299.74 154.45 L299.8 154.23 L299.88 154 L299.97 153.67 L300.08 153.36 L300.19 153.04 L300.29 152.73 L300.4 152.41 L300.5 152.11 L300.59 151.81 L300.68 151.52 L300.74 151.34 L300.81 151.15 L300.86 150.97 L300.94 150.68 L301 150.5 L301.06 150.26 L301.14 150.01 L301.21 149.72 L301.28 149.43 L301.33 149.25 L301.39 149.07 L301.48 148.79 L301.53 148.62 L301.6 148.34 L301.67 148.05 L301.77 147.8 L301.86 147.53 L301.94 147.28 L302.03 147.03 L302.11 146.77 L302.21 146.52 L302.31 146.26 L302.38 146.01 L302.48 145.77 L302.57 145.53 L302.65 145.25 L302.73 145 L302.79 144.83 L302.89 144.59 L302.95 144.35 L303.03 144.13 L303.11 143.89 L303.18 143.66 L303.26 143.44 L303.33 143.21 L303.4 142.98 L303.47 142.79 L303.53 142.58 L303.59 142.37 L303.64 142.19 L303.67 141.99 L303.72 141.8 L303.75 141.66 L303.77 141.51 L303.78 141.32 L303.8 141.17 L303.85 140.88 L303.85 140.67 L303.87 140.45 L303.87 140.24 L303.9 139.99 L303.91 139.77 L303.91 139.6 L303.93 139.42 L303.94 139.17 L303.97 138.91 L304 138.66 L304.03 138.4 L304.07 138.12 L304.08 137.85 L304.12 137.58 L304.14 137.29 L304.19 137.04 L304.23 136.74 L304.26 136.47 L304.33 136.19 L304.36 135.91 L304.4 135.73 L304.46 135.46 L304.52 135.17 L304.57 134.9 L304.62 134.63 L304.69 134.36 L304.77 134.09 L304.83 133.84 L304.92 133.58 L304.96 133.41 L305.05 133.17 L305.12 133.01 L305.18 132.86 L305.27 132.65 L305.33 132.51 L305.45 132.3 L305.55 132.09 L305.64 131.89 L305.76 131.7 L305.83 131.58 L305.9 131.4 L305.98 131.22 L306.05 131.04 L306.12 130.83 L306.19 130.65 L306.26 130.44 L306.34 130.23 L306.41 130 L306.5 129.79 L306.59 129.56 L306.67 129.34 L306.76 129.14 L306.85 128.96 L306.93 128.77 L307.01 128.59 L307.11 128.34 L307.19 128.18 L307.25 128 L307.33 127.83 L307.41 127.65 L307.52 127.41 L307.61 127.23 L307.71 126.99 L307.78 126.81 L307.87 126.58 L307.92 126.4 L308.01 126.18 L308.12 125.94 L308.24 125.71 L308.36 125.5 L308.46 125.29 L308.56 125.08 L308.66 124.93 L308.78 124.73 L308.9 124.52 L309.01 124.33 L309.05 124.28" stroke="#ffffff" stroke-width="5" opacity="0.85"/><path d="M270 270 L270.04 269.94 L270.06 269.85 L270.08 269.7 L270.1 269.56 L270.12 269.41 L270.14 269.28 L270.17 269.17 L270.19 269.04 L270.23 268.9 L270.28 268.72 L270.32 268.54 L270.35 268.39 L270.39 268.26 L270.43 268.09 L270.48 267.93 L270.54 267.78 L270.6 267.64 L270.68 267.51 L270.76 267.37 L270.84 267.24 L270.9 267.12 L270.97 267.01 L271.03 266.94 L271.1 266.8 L271.16 266.65 L271.23 266.49 L271.32 266.34 L271.43 266.22 L271.51 266.1 L271.6 265.96 L271.69 265.83 L271.78 265.69 L271.86 265.57 L271.95 265.45 L272.03 265.32 L272.16 265.14 L272.25 265 L272.33 264.87 L272.46 264.69 L272.55 264.57 L272.64 264.43 L272.74 264.3 L272.87 264.13 L273.01 263.95 L273.11 263.81 L273.27 263.63 L273.39 263.5 L273.53 263.33 L273.66 263.15 L273.8 262.97 L273.9 262.84 L274.01 262.66 L274.12 262.51 L274.24 262.34 L274.34 262.21 L274.43 262 L274.54 261.79 L274.63 261.61 L274.73 261.49 L274.84 261.35 L274.94 261.2 L275.03 261.05 L275.07 260.96 L275.19 260.8 L275.28 260.63 L275.37 260.5 L275.46 260.35 L275.55 260.21 L275.6 260.12 L275.69 259.96 L275.75 259.87 L275.81 259.79 L275.88 259.65 L275.97 259.55 L276.01 259.47 L276.06 259.4 L276.12 259.31 L276.17 259.23 L276.21 259.16 L276.24 259.08 L276.28 259.01 L276.37 258.89 L276.42 258.78 L276.44 258.71 L276.49 258.63 L276.58 258.54 L276.66 258.45 L276.74 258.35 L276.85 258.23 L276.96 258.11 L277.07 257.97 L277.22 257.79 L277.31 257.67 L277.44 257.46 L277.61 257.28 L277.74 257.15 L277.86 257 L277.96 256.85 L278.01 256.74 L278.1 256.61 L278.16 256.49 L278.22 256.36 L278.27 256.24 L278.34 256.14 L278.36 256.08 L278.4 256 L278.46 255.91 L278.55 255.78 L278.63 255.66 L278.7 255.52 L278.79 255.39 L278.84 255.27 L278.88 255.18 L278.94 255.07 L279.02 254.95 L279.1 254.83 L279.14 254.71 L279.21 254.58 L279.26 254.44 L279.33 254.23 L279.4 254.1 L279.46 253.96 L279.49 253.81 L279.54 253.69 L279.61 253.57 L279.69 253.44 L279.77 253.26 L279.87 253.06 L279.91 252.94 L279.95 252.76 L279.99 252.58 L280.03 252.35 L280.07 252.13 L280.12 251.96 L280.17 251.83 L280.21 251.72 L280.28 251.54 L280.36 251.38 L280.41 251.21 L280.48 251.05 L280.56 250.87 L280.65 250.69 L280.75 250.51 L280.82 250.31 L280.9 250.13 L280.94 250 L281.02 249.8 L281.07 249.68 L281.14 249.49 L281.19 249.37 L281.24 249.25 L281.31 249.08 L281.38 248.87 L281.45 248.69 L281.51 248.48 L281.56 248.34 L281.6 248.22 L281.62 248.12 L281.66 247.98 L281.75 247.77 L281.8 247.67 L281.83 247.53 L281.87 247.38 L281.91 247.23 L281.97 247.07 L282.08 246.81 L282.21 246.59 L282.33 246.35 L282.44 246.08 L282.53 245.79 L282.65 245.49 L282.77 245.19 L282.85 244.98 L282.96 244.66 L283.06 244.35 L283.2 244.05 L283.33 243.78 L283.47 243.46 L283.56 243.24 L283.7 242.92 L283.85 242.64 L283.93 242.43 L284.08 242.08 L284.2 241.75 L284.38 241.27 L284.51 240.94 L284.65 240.58 L284.81 240.23 L284.93 239.87 L285.04 239.51 L285.16 239.14 L285.27 238.75 L285.36 238.4 L285.47 238.07 L285.6 237.72 L285.77 237.24 L285.91 236.79 L286.05 236.31 L286.2 235.86 L286.31 235.49 L286.47 235.03 L286.58 234.54 L286.71 234.09 L286.79 233.74 L286.87 233.4 L286.96 233.04 L287.09 232.56 L287.18 232.23 L287.27 231.75 L287.39 231.28 L287.51 230.8 L287.62 230.3 L287.7 229.96 L287.8 229.48 L287.92 229.04 L288.04 228.58 L288.2 227.97 L288.34 227.49 L288.42 227.15 L288.53 226.71 L288.65 226.23 L288.74 225.78 L288.85 225.3 L288.96 224.84 L289.02 224.51 L289.11 224.16 L289.17 223.77 L289.22 223.42 L289.29 222.94 L289.37 222.57 L289.44 222.19 L289.5 221.82 L289.56 221.46 L289.63 221.11 L289.7 220.74 L289.77 220.38 L289.85 220 L289.91 219.65 L289.98 219.28 L290.06 218.92 L290.11 218.56 L290.17 218.32 L290.24 217.94 L290.3 217.58 L290.37 217.21 L290.44 216.97 L290.51 216.58 L290.56 216.2 L290.64 215.82 L290.71 215.43 L290.79 215.04 L290.85 214.65 L290.93 214.28 L290.98 213.9 L291.04 213.51 L291.11 213.14 L291.17 212.75 L291.23 212.35 L291.3 211.98 L291.38 211.59 L291.44 211.23 L291.5 210.84 L291.55 210.58 L291.58 210.33 L291.64 209.95 L291.71 209.55 L291.77 209.17 L291.84 208.78 L291.9 208.4 L291.96 208.01 L292 207.61 L292.06 207.22 L292.12 206.83 L292.15 206.57 L292.2 206.18 L292.26 205.79 L292.33 205.4 L292.38 205.15 L292.43 204.79 L292.5 204.36 L292.57 203.99 L292.62 203.72 L292.69 203.31 L292.76 202.92 L292.83 202.53 L292.9 202.14 L292.98 201.75 L293.04 201.35 L293.11 200.94 L293.18 200.55 L293.22 200.28 L293.27 199.87 L293.34 199.47 L293.41 199.05 L293.5 198.64 L293.58 198.22 L293.68 197.83 L293.79 197.41 L293.88 197 L293.98 196.6 L294.08 196.18 L294.18 195.77 L294.28 195.37 L294.38 194.93 L294.46 194.53 L294.55 194.12 L294.62 193.7 L294.7 193.28 L294.77 192.86 L294.85 192.44 L294.94 192 L295 191.57 L295.07 191.13 L295.11 190.71 L295.17 190.26 L295.22 189.84 L295.28 189.39 L295.33 188.95 L295.36 188.5 L295.42 188.07 L295.46 187.62 L295.51 187.17 L295.56 186.7 L295.59 186.24 L295.64 185.78 L295.68 185.33 L295.74 184.88 L295.79 184.43 L295.86 184 L295.91 183.53 L295.98 183.08 L296.03 182.62 L296.1 182.15 L296.15 181.7 L296.21 181.23 L296.27 180.78 L296.34 180.33 L296.39 179.87 L296.43 179.57 L296.46 179.27 L296.51 178.8 L296.55 178.34 L296.59 177.9 L296.63 177.45 L296.66 177.01 L296.68 176.71 L296.7 176.28 L296.75 175.84 L296.78 175.41 L296.84 174.96 L296.84 174.67 L296.86 174.21 L296.89 173.76 L296.92 173.32 L296.95 172.87 L296.99 172.4 L297.03 171.95 L297.07 171.5 L297.12 171.04 L297.16 170.59 L297.21 170.14 L297.25 169.82 L297.29 169.39 L297.31 168.92 L297.37 168.46 L297.42 167.85 L297.47 167.4 L297.54 166.98 L297.6 166.56 L297.67 166.14 L297.72 165.72 L297.8 165.33 L297.86 164.93 L297.92 164.52 L297.96 164.13 L298.02 163.74 L298.06 163.32 L298.12 162.91 L298.18 162.49 L298.23 162.07 L298.29 161.68 L298.39 161.17 L298.44 160.81 L298.51 160.45 L298.56 160.1 L298.61 159.74 L298.66 159.29 L298.72 158.93 L298.78 158.59 L298.85 158.24 L298.92 157.9 L298.98 157.57 L299.07 157.22 L299.14 156.87 L299.22 156.54 L299.28 156.18 L299.36 155.84 L299.44 155.51 L299.53 155.15 L299.64 154.8 L299.74 154.45 L299.8 154.23 L299.88 154 L299.97 153.67 L300.08 153.36 L300.19 153.04 L300.29 152.73 L300.4 152.41 L300.5 152.11 L300.59 151.81 L300.68 151.52 L300.74 151.34 L300.81 151.15 L300.86 150.97 L300.94 150.68 L301 150.5 L301.06 150.26 L301.14 150.01 L301.21 149.72 L301.28 149.43 L301.33 149.25 L301.39 149.07 L301.48 148.79 L301.53 148.62 L301.6 148.34 L301.67 148.05 L301.77 147.8 L301.86 147.53 L301.94 147.28 L302.03 147.03 L302.11 146.77 L302.21 146.52 L302.31 146.26 L302.38 146.01 L302.48 145.77 L302.57 145.53 L302.65 145.25 L302.73 145 L302.79 144.83 L302.89 144.59 L302.95 144.35 L303.03 144.13 L303.11 143.89 L303.18 143.66 L303.26 143.44 L303.33 143.21 L303.4 142.98 L303.47 142.79 L303.53 142.58 L303.59 142.37 L303.64 142.19 L303.67 141.99 L303.72 141.8 L303.75 141.66 L303.77 141.51 L303.78 141.32 L303.8 141.17 L303.85 140.88 L303.85 140.67 L303.87 140.45 L303.87 140.24 L303.9 139.99 L303.91 139.77 L303.91 139.6 L303.93 139.42 L303.94 139.17 L303.97 138.91 L304 138.66 L304.03 138.4 L304.07 138.12 L304.08 137.85 L304.12 137.58 L304.14 137.29 L304.19 137.04 L304.23 136.74 L304.26 136.47 L304.33 136.19 L304.36 135.91 L304.4 135.73 L304.46 135.46 L304.52 135.17 L304.57 134.9 L304.62 134.63 L304.69 134.36 L304.77 134.09 L304.83 133.84 L304.92 133.58 L304.96 133.41 L305.05 133.17 L305.12 133.01 L305.18 132.86 L305.27 132.65 L305.33 132.51 L305.45 132.3 L305.55 132.09 L305.64 131.89 L305.76 131.7 L305.83 131.58 L305.9 131.4 L305.98 131.22 L306.05 131.04 L306.12 130.83 L306.19 130.65 L306.26 130.44 L306.34 130.23 L306.41 130 L306.5 129.79 L306.59 129.56 L306.67 129.34 L306.76 129.14 L306.85 128.96 L306.93 128.77 L307.01 128.59 L307.11 128.34 L307.19 128.18 L307.25 128 L307.33 127.83 L307.41 127.65 L307.52 127.41 L307.61 127.23 L307.71 126.99 L307.78 126.81 L307.87 126.58 L307.92 126.4 L308.01 126.18 L308.12 125.94 L308.24 125.71 L308.36 125.5 L308.46 125.29 L308.56 125.08 L308.66 124.93 L308.78 124.73 L308.9 124.52 L309.01 124.33 L309.05 124.28" stroke="#2a78d6" stroke-width="2.2"/></g><g><circle cx="270" cy="270" r="4.5" fill="#ffffff"/><circle cx="270" cy="270" r="2.6" fill="#0f172a"/></g><g><circle cx="273.92" cy="262.81" r="8" fill="#2a78d6" stroke="#ffffff" stroke-width="1.4"/><text x="273.92" y="262.81" fill="#ffffff" font-size="9.5" font-weight="700" text-anchor="middle" dominant-baseline="central">1</text><circle cx="278.23" cy="256.34" r="8" fill="#2a78d6" stroke="#ffffff" stroke-width="1.4"/><text x="278.23" y="256.34" fill="#ffffff" font-size="9.5" font-weight="700" text-anchor="middle" dominant-baseline="central">2</text><circle cx="282.45" cy="246.02" r="8" fill="#2a78d6" stroke="#ffffff" stroke-width="1.4"/><text x="282.45" y="246.02" fill="#ffffff" font-size="9.5" font-weight="700" text-anchor="middle" dominant-baseline="central">3</text><circle cx="289.93" cy="219.54" r="8" fill="#2a78d6" stroke="#ffffff" stroke-width="1.4"/><text x="289.93" y="219.54" fill="#ffffff" font-size="9.5" font-weight="700" text-anchor="middle" dominant-baseline="central">4</text><circle cx="294.17" cy="195.84" r="8" fill="#2a78d6" stroke="#ffffff" stroke-width="1.4"/><text x="294.17" y="195.84" fill="#ffffff" font-size="9.5" font-weight="700" text-anchor="middle" dominant-baseline="central">5</text><circle cx="299.8" cy="154.25" r="8" fill="#2a78d6" stroke="#ffffff" stroke-width="1.4"/><text x="299.8" y="154.25" fill="#ffffff" font-size="9.5" font-weight="700" text-anchor="middle" dominant-baseline="central">6</text><circle cx="309.05" cy="124.28" r="8" fill="#2a78d6" stroke="#ffffff" stroke-width="1.4"/><text x="309.05" y="124.28" fill="#ffffff" font-size="9.5" font-weight="700" text-anchor="middle" dominant-baseline="central">7</text></g><g font-size="11" fill="#64748b" dominant-baseline="central"><text x="-40" y="602">до 16,0 км за 54 мин</text><text x="580" y="602" text-anchor="end">1 деление — 20 км, радиус 200 км</text></g></g><g><line x1="674" y1="22" x2="696" y2="22" stroke="#eb6834" stroke-width="3" stroke-linecap="round"/><circle cx="685" cy="22" r="4.5" fill="#eb6834" stroke="#ffffff" stroke-width="1.5"/><text x="706" y="22" font-size="16" font-weight="700" fill="#334155" dominant-baseline="central">Прогноз GRIB: прогон 30.09.2026 06:00 UTC, +6 ч</text><text x="706" y="44" font-size="12" fill="#64748b" dominant-baseline="central">Линейная · у земли: нижний уровень · подъём: 5 м/с · сетка: узел</text></g><g transform="translate(706 104)"><rect x="-46" y="-46" width="632" height="662" fill="#ffffff"/><g fill="none"><circle cx="270" cy="270" r="27" stroke="#e6ebf2" stroke-width="0.7"/><circle cx="270" cy="270" r="54" stroke="#e6ebf2" stroke-width="0.7"/><circle cx="270" cy="270" r="81" stroke="#e6ebf2" stroke-width="0.7"/><circle cx="270" cy="270" r="108" stroke="#e6ebf2" stroke-width="0.7"/><circle cx="270" cy="270" r="135" stroke="#b9c5d3" stroke-width="1.6"/><circle cx="270" cy="270" r="162" stroke="#e6ebf2" stroke-width="0.7"/><circle cx="270" cy="270" r="189" stroke="#e6ebf2" stroke-width="0.7"/><circle cx="270" cy="270" r="216" stroke="#e6ebf2" stroke-width="0.7"/><circle cx="270" cy="270" r="243" stroke="#e6ebf2" stroke-width="0.7"/><circle cx="270" cy="270" r="270" stroke="#8fa0b3" stroke-width="1.2"/></g><g><line x1="270" y1="270" x2="270" y2="-18" stroke="#b9c5d3" stroke-width="1"/><line x1="270" y1="270" x2="405" y2="36.17" stroke="#d5dde6" stroke-width="0.6"/><line x1="270" y1="270" x2="503.83" y2="135" stroke="#d5dde6" stroke-width="0.6"/><line x1="270" y1="270" x2="558" y2="270" stroke="#b9c5d3" stroke-width="1"/><line x1="270" y1="270" x2="503.83" y2="405" stroke="#d5dde6" stroke-width="0.6"/><line x1="270" y1="270" x2="405" y2="503.83" stroke="#d5dde6" stroke-width="0.6"/><line x1="270" y1="270" x2="270" y2="558" stroke="#b9c5d3" stroke-width="1"/><line x1="270" y1="270" x2="135" y2="503.83" stroke="#d5dde6" stroke-width="0.6"/><line x1="270" y1="270" x2="36.17" y2="405" stroke="#d5dde6" stroke-width="0.6"/><line x1="270" y1="270" x2="-18" y2="270" stroke="#b9c5d3" stroke-width="1"/><line x1="270" y1="270" x2="36.17" y2="135" stroke="#d5dde6" stroke-width="0.6"/><line x1="270" y1="270" x2="135" y2="36.17" stroke="#d5dde6" stroke-width="0.6"/></g><g stroke="#94a3b8"><line x1="270" y1="0" x2="270" y2="-10" stroke-width="1.2"/><line x1="293.53" y1="1.03" x2="293.79" y2="-1.96" stroke-width="0.7"/><line x1="316.89" y1="4.1" x2="317.41" y2="1.15" stroke-width="0.7"/><line x1="339.88" y1="9.2" x2="341.43" y2="3.4" stroke-width="0.7"/><line x1="362.35" y1="16.28" x2="363.37" y2="13.46" stroke-width="0.7"/><line x1="384.11" y1="25.3" x2="385.37" y2="22.58" stroke-width="0.7"/><line x1="405" y1="36.17" x2="408" y2="30.98" stroke-width="0.7"/><line x1="424.87" y1="48.83" x2="426.59" y2="46.37" stroke-width="0.7"/><line x1="443.55" y1="63.17" x2="445.48" y2="60.87" stroke-width="0.7"/><line x1="460.92" y1="79.08" x2="467.99" y2="72.01" stroke-width="1.2"/><line x1="476.83" y1="96.45" x2="479.13" y2="94.52" stroke-width="0.7"/><line x1="491.17" y1="115.13" x2="493.63" y2="113.41" stroke-width="0.7"/><line x1="503.83" y1="135" x2="509.02" y2="132" stroke-width="0.7"/><line x1="514.7" y1="155.89" x2="517.42" y2="154.63" stroke-width="0.7"/><line x1="523.72" y1="177.65" x2="526.54" y2="176.63" stroke-width="0.7"/><line x1="530.8" y1="200.12" x2="536.6" y2="198.57" stroke-width="0.7"/><line x1="535.9" y1="223.11" x2="538.85" y2="222.59" stroke-width="0.7"/><line x1="538.97" y1="246.47" x2="541.96" y2="246.21" stroke-width="0.7"/><line x1="540" y1="270" x2="550" y2="270" stroke-width="1.2"/><line x1="538.97" y1="293.53" x2="541.96" y2="293.79" stroke-width="0.7"/><line x1="535.9" y1="316.89" x2="538.85" y2="317.41" stroke-width="0.7"/><line x1="530.8" y1="339.88" x2="536.6" y2="341.43" stroke-width="0.7"/><line x1="523.72" y1="362.35" x2="526.54" y2="363.37" stroke-width="0.7"/><line x1="514.7" y1="384.11" x2="517.42" y2="385.37" stroke-width="0.7"/><line x1="503.83" y1="405" x2="509.02" y2="408" stroke-width="0.7"/><line x1="491.17" y1="424.87" x2="493.63" y2="426.59" stroke-width="0.7"/><line x1="476.83" y1="443.55" x2="479.13" y2="445.48" stroke-width="0.7"/><line x1="460.92" y1="460.92" x2="467.99" y2="467.99" stroke-width="1.2"/><line x1="443.55" y1="476.83" x2="445.48" y2="479.13" stroke-width="0.7"/><line x1="424.87" y1="491.17" x2="426.59" y2="493.63" stroke-width="0.7"/><line x1="405" y1="503.83" x2="408" y2="509.02" stroke-width="0.7"/><line x1="384.11" y1="514.7" x2="385.37" y2="517.42" stroke-width="0.7"/><line x1="362.35" y1="523.72" x2="363.37" y2="526.54" stroke-width="0.7"/><line x1="339.88" y1="530.8" x2="341.43" y2="536.6" stroke-width="0.7"/><line x1="316.89" y1="535.9" x2="317.41" y2="538.85" stroke-width="0.7"/><line x1="293.53" y1="538.97" x2="293.79" y2="541.96" stroke-width="0.7"/><line x1="270" y1="540" x2="270" y2="550" stroke-width="1.2"/><line x1="246.47" y1="538.97" x2="246.21" y2="541.96" stroke-width="0.7"/><line x1="223.11" y1="535.9" x2="222.59" y2="538.85" stroke-width="0.7"/><line x1="200.12" y1="530.8" x2="198.57" y2="536.6" stroke-width="0.7"/><line x1="177.65" y1="523.72" x2="176.63" y2="526.54" stroke-width="0.7"/><line x1="155.89" y1="514.7" x2="154.63" y2="517.42" stroke-width="0.7"/><line x1="135" y1="503.83" x2="132" y2="509.02" stroke-width="0.7"/><line x1="115.13" y1="491.17" x2="113.41" y2="493.63" stroke-width="0.7"/><line x1="96.45" y1="476.83" x2="94.52" y2="479.13" stroke-width="0.7"/><line x1="79.08" y1="460.92" x2="72.01" y2="467.99" stroke-width="1.2"/><line x1="63.17" y1="443.55" x2="60.87" y2="445.48" stroke-width="0.7"/><line x1="48.83" y1="424.87" x2="46.37" y2="426.59" stroke-width="0.7"/><line x1="36.17" y1="405" x2="30.98" y2="408" stroke-width="0.7"/><line x1="25.3" y1="384.11" x2="22.58" y2="385.37" stroke-width="0.7"/><line x1="16.28" y1="362.35" x2="13.46" y2="363.37" stroke-width="0.7"/><line x1="9.2" y1="339.88" x2="3.4" y2="341.43" stroke-width="0.7"/><line x1="4.1" y1="316.89" x2="1.15" y2="317.41" stroke-width="0.7"/><line x1="1.03" y1="293.53" x2="-1.96" y2="293.79" stroke-width="0.7"/><line x1="0" y1="270" x2="-10" y2="270" stroke-width="1.2"/><line x1="1.03" y1="246.47" x2="-1.96" y2="246.21" stroke-width="0.7"/><line x1="4.1" y1="223.11" x2="1.15" y2="222.59" stroke-width="0.7"/><line x1="9.2" y1="200.12" x2="3.4" y2="198.57" stroke-width="0.7"/><line x1="16.28" y1="177.65" x2="13.46" y2="176.63" stroke-width="0.7"/><line x1="25.3" y1="155.89" x2="22.58" y2="154.63" stroke-width="0.7"/><line x1="36.17" y1="135" x2="30.98" y2="132" stroke-width="0.7"/><line x1="48.83" y1="115.13" x2="46.37" y2="113.41" stroke-width="0.7"/><line x1="63.17" y1="96.45" x2="60.87" y2="94.52" stroke-width="0.7"/><line x1="79.08" y1="79.08" x2="72.01" y2="72.01" stroke-width="1.2"/><line x1="96.45" y1="63.17" x2="94.52" y2="60.87" stroke-width="0.7"/><line x1="115.13" y1="48.83" x2="113.41" y2="46.37" stroke-width="0.7"/><line x1="135" y1="36.17" x2="132" y2="30.98" stroke-width="0.7"/><line x1="155.89" y1="25.3" x2="154.63" y2="22.58" stroke-width="0.7"/><line x1="177.65" y1="16.28" x2="176.63" y2="13.46" stroke-width="0.7"/><line x1="200.12" y1="9.2" x2="198.57" y2="3.4" stroke-width="0.7"/><line x1="223.11" y1="4.1" x2="222.59" y2="1.15" stroke-width="0.7"/><line x1="246.47" y1="1.03" x2="246.21" y2="-1.96" stroke-width="0.7"/></g><g text-anchor="middle" dominant-baseline="central"><text x="270" y="-26" fill="#334155" font-size="16" font-weight="700">С</text><text x="418" y="13.66" fill="#94a3b8" font-size="9" font-weight="500">30</text><text x="526.34" y="122" fill="#94a3b8" font-size="9" font-weight="500">60</text><text x="566" y="270" fill="#334155" font-size="16" font-weight="700">В</text><text x="526.34" y="418" fill="#94a3b8" font-size="9" font-weight="500">120</text><text x="418" y="526.34" fill="#94a3b8" font-size="9" font-weight="500">150</text><text x="270" y="566" fill="#334155" font-size="16" font-weight="700">Ю</text><text x="122" y="526.34" fill="#94a3b8" font-size="9" font-weight="500">210</text><text x="13.66" y="418" fill="#94a3b8" font-size="9" font-weight="500">240</text><text x="-26" y="270" fill="#334155" font-size="16" font-weight="700">З</text><text x="13.66" y="122" fill="#94a3b8" font-size="9" font-weight="500">300</text><text x="122" y="13.66" fill="#94a3b8" font-size="9" font-weight="500">330</text></g><g fill="#94a3b8" font-size="8" text-anchor="start" dominant-baseline="central"><text x="273" y="216">40</text><text x="273" y="162">80</text><text x="273" y="108">120</text><text x="273" y="54">160</text></g><g fill="none" stroke-linejoin="round" stroke-linecap="round"></g><g font-size="9" fill="#334155" dominant-baseline="hanging"></g><g fill="none" stroke-linecap="round" stroke-linejoin="round"><path d="M270 270 L270.11 269.8 L270.22 269.6 L270.33 269.4 L270.45 269.2 L270.56 269 L270.67 268.8 L270.78 268.59 L270.89 268.39 L271 268.19 L271.11 267.99 L271.22 267.79 L271.33 267.59 L271.45 267.39 L271.56 267.19 L271.67 266.99 L271.78 266.79 L271.89 266.59 L272 266.39 L272.11 266.19 L272.22 265.99 L272.34 265.78 L272.45 265.58 L272.56 265.38 L272.67 265.18 L272.78 264.98 L272.89 264.78 L273 264.58 L273.11 264.38 L273.23 264.18 L273.34 263.98 L273.45 263.78 L273.56 263.57 L273.67 263.37 L273.79 263.16 L273.9 262.95 L274.01 262.73 L274.13 262.52 L274.25 262.3 L274.36 262.08 L274.48 261.86 L274.6 261.63 L274.72 261.41 L274.83 261.18 L274.95 260.95 L275.07 260.72 L275.2 260.48 L275.32 260.24 L275.44 260 L275.56 259.76 L275.68 259.52 L275.81 259.28 L275.93 259.03 L276.06 258.79 L276.18 258.54 L276.31 258.3 L276.43 258.05 L276.56 257.8 L276.69 257.55 L276.82 257.3 L276.94 257.04 L277.07 256.79 L277.2 256.53 L277.33 256.27 L277.47 256 L277.6 255.73 L277.74 255.46 L277.87 255.18 L278.01 254.9 L278.15 254.62 L278.29 254.33 L278.43 254.04 L278.58 253.74 L278.72 253.44 L278.87 253.14 L279.02 252.83 L279.16 252.52 L279.31 252.21 L279.46 251.89 L279.62 251.56 L279.77 251.24 L279.92 250.91 L280.08 250.58 L280.24 250.24 L280.4 249.9 L280.56 249.55 L280.72 249.2 L280.88 248.84 L281.04 248.47 L281.21 248.1 L281.37 247.72 L281.54 247.33 L281.7 246.94 L281.87 246.53 L282.04 246.13 L282.21 245.71 L282.38 245.29 L282.55 244.86 L282.73 244.42 L282.9 243.98 L283.07 243.53 L283.25 243.08 L283.43 242.61 L283.61 242.14 L283.79 241.67 L283.97 241.18 L284.15 240.69 L284.33 240.19 L284.51 239.69 L284.69 239.18 L284.88 238.67 L285.06 238.16 L285.24 237.64 L285.42 237.13 L285.59 236.61 L285.77 236.09 L285.95 235.57 L286.12 235.04 L286.29 234.52 L286.47 233.99 L286.64 233.46 L286.81 232.93 L286.98 232.39 L287.15 231.86 L287.31 231.32 L287.48 230.78 L287.64 230.24 L287.81 229.69 L287.97 229.15 L288.13 228.6 L288.3 228.05 L288.46 227.5 L288.62 226.95 L288.78 226.39 L288.94 225.84 L289.1 225.28 L289.25 224.72 L289.41 224.16 L289.57 223.6 L289.72 223.03 L289.88 222.47 L290.03 221.9 L290.19 221.33 L290.34 220.76 L290.49 220.18 L290.64 219.61 L290.79 219.03 L290.94 218.45 L291.09 217.86 L291.24 217.27 L291.39 216.68 L291.53 216.08 L291.67 215.48 L291.82 214.88 L291.96 214.28 L292.1 213.67 L292.24 213.05 L292.38 212.44 L292.52 211.82 L292.65 211.2 L292.79 210.57 L292.92 209.94 L293.06 209.31 L293.19 208.67 L293.29 208 L293.39 207.33 L293.48 206.65 L293.58 205.97 L293.67 205.29 L293.77 204.61 L293.86 203.93 L293.95 203.24 L294.03 202.55 L294.12 201.85 L294.2 201.16 L294.28 200.46 L294.36 199.76 L294.44 199.06 L294.52 198.35 L294.59 197.64 L294.67 196.93 L294.74 196.22 L294.81 195.51 L294.88 194.79 L294.95 194.07 L295.02 193.36 L295.08 192.64 L295.15 191.92 L295.21 191.2 L295.28 190.48 L295.34 189.75 L295.4 189.03 L295.47 188.3 L295.53 187.58 L295.59 186.85 L295.65 186.12 L295.71 185.4 L295.77 184.67 L295.83 183.94 L295.89 183.22 L295.95 182.49 L296.01 181.76 L296.07 181.04 L296.14 180.31 L296.2 179.58 L296.26 178.86 L296.32 178.14 L296.39 177.43 L296.45 176.72 L296.52 176.01 L296.59 175.31 L296.66 174.61 L296.73 173.92 L296.81 173.24 L296.88 172.55 L296.96 171.88 L297.04 171.2 L297.12 170.54 L297.2 169.87 L297.29 169.22 L297.37 168.57 L297.46 167.92 L297.56 167.28 L297.65 166.65 L297.75 166.02 L297.84 165.4 L297.94 164.78 L298.05 164.17 L298.15 163.57 L298.26 162.97 L298.37 162.38 L298.48 161.79 L298.59 161.2 L298.7 160.63 L298.82 160.06 L298.94 159.49 L299.06 158.94 L299.18 158.39 L299.3 157.85 L299.42 157.32 L299.54 156.79 L299.66 156.28 L299.78 155.77 L299.9 155.27 L300.03 154.78 L300.15 154.3 L300.27 153.83 L300.4 153.36 L300.52 152.89 L300.64 152.43 L300.76 151.97 L300.88 151.51 L300.99 151.05 L301.11 150.6 L301.22 150.15 L301.33 149.7 L301.45 149.26 L301.56 148.81 L301.66 148.37 L301.77 147.93 L301.88 147.5 L301.98 147.07 L302.09 146.64 L302.19 146.21 L302.29 145.78 L302.39 145.36 L302.49 144.94 L302.58 144.52 L302.68 144.11 L302.77 143.7 L302.87 143.29 L302.96 142.88 L303.05 142.48 L303.14 142.07 L303.24 141.68 L303.33 141.28 L303.43 140.88 L303.52 140.49 L303.62 140.1 L303.72 139.71 L303.82 139.33 L303.91 138.95 L304.01 138.57 L304.11 138.19 L304.21 137.81 L304.31 137.44 L304.41 137.07 L304.51 136.7 L304.62 136.34 L304.72 135.98 L304.82 135.62 L304.92 135.26 L305.03 134.91 L305.13 134.56 L305.24 134.22 L305.34 133.88 L305.44 133.54 L305.55 133.2 L305.65 132.87 L305.76 132.54 L305.86 132.22 L305.97 131.9 L306.07 131.58 L306.18 131.27 L306.28 130.95 L306.39 130.65 L306.5 130.34 L306.6 130.04 L306.71 129.74 L306.82 129.45 L306.93 129.16 L307.03 128.87 L307.14 128.59 L307.25 128.31 L307.36 128.03 L307.47 127.76 L307.57 127.49 L307.68 127.22 L307.79 126.96 L307.9 126.7 L308.01 126.44" stroke="#ffffff" stroke-width="5" opacity="0.85"/><path d="M270 270 L270.11 269.8 L270.22 269.6 L270.33 269.4 L270.45 269.2 L270.56 269 L270.67 268.8 L270.78 268.59 L270.89 268.39 L271 268.19 L271.11 267.99 L271.22 267.79 L271.33 267.59 L271.45 267.39 L271.56 267.19 L271.67 266.99 L271.78 266.79 L271.89 266.59 L272 266.39 L272.11 266.19 L272.22 265.99 L272.34 265.78 L272.45 265.58 L272.56 265.38 L272.67 265.18 L272.78 264.98 L272.89 264.78 L273 264.58 L273.11 264.38 L273.23 264.18 L273.34 263.98 L273.45 263.78 L273.56 263.57 L273.67 263.37 L273.79 263.16 L273.9 262.95 L274.01 262.73 L274.13 262.52 L274.25 262.3 L274.36 262.08 L274.48 261.86 L274.6 261.63 L274.72 261.41 L274.83 261.18 L274.95 260.95 L275.07 260.72 L275.2 260.48 L275.32 260.24 L275.44 260 L275.56 259.76 L275.68 259.52 L275.81 259.28 L275.93 259.03 L276.06 258.79 L276.18 258.54 L276.31 258.3 L276.43 258.05 L276.56 257.8 L276.69 257.55 L276.82 257.3 L276.94 257.04 L277.07 256.79 L277.2 256.53 L277.33 256.27 L277.47 256 L277.6 255.73 L277.74 255.46 L277.87 255.18 L278.01 254.9 L278.15 254.62 L278.29 254.33 L278.43 254.04 L278.58 253.74 L278.72 253.44 L278.87 253.14 L279.02 252.83 L279.16 252.52 L279.31 252.21 L279.46 251.89 L279.62 251.56 L279.77 251.24 L279.92 250.91 L280.08 250.58 L280.24 250.24 L280.4 249.9 L280.56 249.55 L280.72 249.2 L280.88 248.84 L281.04 248.47 L281.21 248.1 L281.37 247.72 L281.54 247.33 L281.7 246.94 L281.87 246.53 L282.04 246.13 L282.21 245.71 L282.38 245.29 L282.55 244.86 L282.73 244.42 L282.9 243.98 L283.07 243.53 L283.25 243.08 L283.43 242.61 L283.61 242.14 L283.79 241.67 L283.97 241.18 L284.15 240.69 L284.33 240.19 L284.51 239.69 L284.69 239.18 L284.88 238.67 L285.06 238.16 L285.24 237.64 L285.42 237.13 L285.59 236.61 L285.77 236.09 L285.95 235.57 L286.12 235.04 L286.29 234.52 L286.47 233.99 L286.64 233.46 L286.81 232.93 L286.98 232.39 L287.15 231.86 L287.31 231.32 L287.48 230.78 L287.64 230.24 L287.81 229.69 L287.97 229.15 L288.13 228.6 L288.3 228.05 L288.46 227.5 L288.62 226.95 L288.78 226.39 L288.94 225.84 L289.1 225.28 L289.25 224.72 L289.41 224.16 L289.57 223.6 L289.72 223.03 L289.88 222.47 L290.03 221.9 L290.19 221.33 L290.34 220.76 L290.49 220.18 L290.64 219.61 L290.79 219.03 L290.94 218.45 L291.09 217.86 L291.24 217.27 L291.39 216.68 L291.53 216.08 L291.67 215.48 L291.82 214.88 L291.96 214.28 L292.1 213.67 L292.24 213.05 L292.38 212.44 L292.52 211.82 L292.65 211.2 L292.79 210.57 L292.92 209.94 L293.06 209.31 L293.19 208.67 L293.29 208 L293.39 207.33 L293.48 206.65 L293.58 205.97 L293.67 205.29 L293.77 204.61 L293.86 203.93 L293.95 203.24 L294.03 202.55 L294.12 201.85 L294.2 201.16 L294.28 200.46 L294.36 199.76 L294.44 199.06 L294.52 198.35 L294.59 197.64 L294.67 196.93 L294.74 196.22 L294.81 195.51 L294.88 194.79 L294.95 194.07 L295.02 193.36 L295.08 192.64 L295.15 191.92 L295.21 191.2 L295.28 190.48 L295.34 189.75 L295.4 189.03 L295.47 188.3 L295.53 187.58 L295.59 186.85 L295.65 186.12 L295.71 185.4 L295.77 184.67 L295.83 183.94 L295.89 183.22 L295.95 182.49 L296.01 181.76 L296.07 181.04 L296.14 180.31 L296.2 179.58 L296.26 178.86 L296.32 178.14 L296.39 177.43 L296.45 176.72 L296.52 176.01 L296.59 175.31 L296.66 174.61 L296.73 173.92 L296.81 173.24 L296.88 172.55 L296.96 171.88 L297.04 171.2 L297.12 170.54 L297.2 169.87 L297.29 169.22 L297.37 168.57 L297.46 167.92 L297.56 167.28 L297.65 166.65 L297.75 166.02 L297.84 165.4 L297.94 164.78 L298.05 164.17 L298.15 163.57 L298.26 162.97 L298.37 162.38 L298.48 161.79 L298.59 161.2 L298.7 160.63 L298.82 160.06 L298.94 159.49 L299.06 158.94 L299.18 158.39 L299.3 157.85 L299.42 157.32 L299.54 156.79 L299.66 156.28 L299.78 155.77 L299.9 155.27 L300.03 154.78 L300.15 154.3 L300.27 153.83 L300.4 153.36 L300.52 152.89 L300.64 152.43 L300.76 151.97 L300.88 151.51 L300.99 151.05 L301.11 150.6 L301.22 150.15 L301.33 149.7 L301.45 149.26 L301.56 148.81 L301.66 148.37 L301.77 147.93 L301.88 147.5 L301.98 147.07 L302.09 146.64 L302.19 146.21 L302.29 145.78 L302.39 145.36 L302.49 144.94 L302.58 144.52 L302.68 144.11 L302.77 143.7 L302.87 143.29 L302.96 142.88 L303.05 142.48 L303.14 142.07 L303.24 141.68 L303.33 141.28 L303.43 140.88 L303.52 140.49 L303.62 140.1 L303.72 139.71 L303.82 139.33 L303.91 138.95 L304.01 138.57 L304.11 138.19 L304.21 137.81 L304.31 137.44 L304.41 137.07 L304.51 136.7 L304.62 136.34 L304.72 135.98 L304.82 135.62 L304.92 135.26 L305.03 134.91 L305.13 134.56 L305.24 134.22 L305.34 133.88 L305.44 133.54 L305.55 133.2 L305.65 132.87 L305.76 132.54 L305.86 132.22 L305.97 131.9 L306.07 131.58 L306.18 131.27 L306.28 130.95 L306.39 130.65 L306.5 130.34 L306.6 130.04 L306.71 129.74 L306.82 129.45 L306.93 129.16 L307.03 128.87 L307.14 128.59 L307.25 128.31 L307.36 128.03 L307.47 127.76 L307.57 127.49 L307.68 127.22 L307.79 126.96 L307.9 126.7 L308.01 126.44" stroke="#eb6834" stroke-width="2.2"/></g><g><circle cx="270" cy="270" r="4.5" fill="#ffffff"/><circle cx="270" cy="270" r="2.6" fill="#0f172a"/></g><g><circle cx="273.34" cy="263.98" r="8" fill="#eb6834" stroke="#ffffff" stroke-width="1.4"/><text x="273.34" y="263.98" fill="#ffffff" font-size="9.5" font-weight="700" text-anchor="middle" dominant-baseline="central">1</text><circle cx="276.94" cy="257.04" r="8" fill="#eb6834" stroke="#ffffff" stroke-width="1.4"/><text x="276.94" y="257.04" fill="#ffffff" font-size="9.5" font-weight="700" text-anchor="middle" dominant-baseline="central">2</text><circle cx="283.07" cy="243.53" r="8" fill="#eb6834" stroke="#ffffff" stroke-width="1.4"/><text x="283.07" y="243.53" fill="#ffffff" font-size="9.5" font-weight="700" text-anchor="middle" dominant-baseline="central">3</text><circle cx="289.88" cy="222.47" r="8" fill="#eb6834" stroke="#ffffff" stroke-width="1.4"/><text x="289.88" y="222.47" fill="#ffffff" font-size="9.5" font-weight="700" text-anchor="middle" dominant-baseline="central">4</text><circle cx="294.67" cy="196.93" r="8" fill="#eb6834" stroke="#ffffff" stroke-width="1.4"/><text x="294.67" y="196.93" fill="#ffffff" font-size="9.5" font-weight="700" text-anchor="middle" dominant-baseline="central">5</text><circle cx="299.54" cy="156.79" r="8" fill="#eb6834" stroke="#ffffff" stroke-width="1.4"/><text x="299.54" y="156.79" fill="#ffffff" font-size="9.5" font-weight="700" text-anchor="middle" dominant-baseline="central">6</text><circle cx="308.01" cy="126.44" r="8" fill="#eb6834" stroke="#ffffff" stroke-width="1.4"/><text x="308.01" y="126.44" fill="#ffffff" font-size="9.5" font-weight="700" text-anchor="middle" dominant-baseline="central">7</text></g><g font-size="11" fill="#64748b" dominant-baseline="central"><text x="-40" y="602">до 16,0 км за 53 мин</text><text x="580" y="602" text-anchor="end">1 деление — 20 км, радиус 200 км</text></g></g><g><g font-size="12"><line x1="184" y1="752" x2="598" y2="752" stroke="#e6ebf2"/><rect x="339" y="737" width="10" height="10" rx="2" fill="#2a78d6"/><text x="355" y="742" dominant-baseline="central" font-weight="700" fill="#334155">Факт</text><line x1="614" y1="752" x2="1028" y2="752" stroke="#e6ebf2"/><rect x="769" y="737" width="10" height="10" rx="2" fill="#eb6834"/><text x="785" y="742" dominant-baseline="central" font-weight="700" fill="#334155">Прогноз</text></g><g font-size="12" fill="#64748b"><text x="41" y="764" text-anchor="middle" dominant-baseline="central">№</text><text x="121" y="764" text-anchor="middle" dominant-baseline="central">Высота, км</text><text x="246" y="764" text-anchor="middle" dominant-baseline="central">Время, мин</text><text x="386" y="764" text-anchor="middle" dominant-baseline="central">Азимут, °</text><text x="531" y="764" text-anchor="middle" dominant-baseline="central">Удаление, км</text><text x="676" y="764" text-anchor="middle" dominant-baseline="central">Время, мин</text><text x="816" y="764" text-anchor="middle" dominant-baseline="central">Азимут, °</text><text x="961" y="764" text-anchor="middle" dominant-baseline="central">Удаление, км</text><text x="1156" y="764" text-anchor="middle" dominant-baseline="central">Ошибка, км</text></g><line x1="16" y1="774" x2="1276" y2="774" stroke="#8fa0b3" stroke-width="1"/><g font-size="13" fill="#334155" style="font-variant-numeric: tabular-nums"><text x="41" y="785" text-anchor="middle" dominant-baseline="central">1</text><text x="121" y="785" text-anchor="middle" dominant-baseline="central">1,5</text><text x="246" y="785" text-anchor="middle" dominant-baseline="central">5</text><text x="386" y="785" text-anchor="middle" dominant-baseline="central">29</text><text x="531" y="785" text-anchor="middle" dominant-baseline="central">6,1</text><text x="676" y="785" text-anchor="middle" dominant-baseline="central">5</text><text x="816" y="785" text-anchor="middle" dominant-baseline="central">29</text><text x="961" y="785" text-anchor="middle" dominant-baseline="central">5,1</text><text x="1156" y="785" text-anchor="middle" dominant-baseline="central" font-weight="700">1,0</text></g><line x1="16" y1="796" x2="1276" y2="796" stroke="#e6ebf2" stroke-width="1"/><g font-size="13" fill="#334155" style="font-variant-numeric: tabular-nums"><text x="41" y="807" text-anchor="middle" dominant-baseline="central">2</text><text x="121" y="807" text-anchor="middle" dominant-baseline="central">3,0</text><text x="246" y="807" text-anchor="middle" dominant-baseline="central">10</text><text x="386" y="807" text-anchor="middle" dominant-baseline="central">31</text><text x="531" y="807" text-anchor="middle" dominant-baseline="central">11,8</text><text x="676" y="807" text-anchor="middle" dominant-baseline="central">10</text><text x="816" y="807" text-anchor="middle" dominant-baseline="central">28</text><text x="961" y="807" text-anchor="middle" dominant-baseline="central">10,9</text><text x="1156" y="807" text-anchor="middle" dominant-baseline="central" font-weight="700">1,1</text></g><line x1="16" y1="818" x2="1276" y2="818" stroke="#e6ebf2" stroke-width="1"/><g font-size="13" fill="#334155" style="font-variant-numeric: tabular-nums"><text x="41" y="829" text-anchor="middle" dominant-baseline="central">3</text><text x="121" y="829" text-anchor="middle" dominant-baseline="central">5,0</text><text x="246" y="829" text-anchor="middle" dominant-baseline="central">17</text><text x="386" y="829" text-anchor="middle" dominant-baseline="central">27</text><text x="531" y="829" text-anchor="middle" dominant-baseline="central">20,0</text><text x="676" y="829" text-anchor="middle" dominant-baseline="central">17</text><text x="816" y="829" text-anchor="middle" dominant-baseline="central">26</text><text x="961" y="829" text-anchor="middle" dominant-baseline="central">21,9</text><text x="1156" y="829" text-anchor="middle" dominant-baseline="central" font-weight="700">1,9</text></g><line x1="16" y1="840" x2="1276" y2="840" stroke="#e6ebf2" stroke-width="1"/><g font-size="13" fill="#334155" style="font-variant-numeric: tabular-nums"><text x="41" y="851" text-anchor="middle" dominant-baseline="central">4</text><text x="121" y="851" text-anchor="middle" dominant-baseline="central">7,0</text><text x="246" y="851" text-anchor="middle" dominant-baseline="central">24</text><text x="386" y="851" text-anchor="middle" dominant-baseline="central">22</text><text x="531" y="851" text-anchor="middle" dominant-baseline="central">40,2</text><text x="676" y="851" text-anchor="middle" dominant-baseline="central">23</text><text x="816" y="851" text-anchor="middle" dominant-baseline="central">23</text><text x="961" y="851" text-anchor="middle" dominant-baseline="central">38,2</text><text x="1156" y="851" text-anchor="middle" dominant-baseline="central" font-weight="700">2,2</text></g><line x1="16" y1="862" x2="1276" y2="862" stroke="#e6ebf2" stroke-width="1"/><g font-size="13" fill="#334155" style="font-variant-numeric: tabular-nums"><text x="41" y="873" text-anchor="middle" dominant-baseline="central">5</text><text x="121" y="873" text-anchor="middle" dominant-baseline="central">9,0</text><text x="246" y="873" text-anchor="middle" dominant-baseline="central">31</text><text x="386" y="873" text-anchor="middle" dominant-baseline="central">18</text><text x="531" y="873" text-anchor="middle" dominant-baseline="central">57,8</text><text x="676" y="873" text-anchor="middle" dominant-baseline="central">30</text><text x="816" y="873" text-anchor="middle" dominant-baseline="central">19</text><text x="961" y="873" text-anchor="middle" dominant-baseline="central">57,1</text><text x="1156" y="873" text-anchor="middle" dominant-baseline="central" font-weight="700">0,9</text></g><line x1="16" y1="884" x2="1276" y2="884" stroke="#e6ebf2" stroke-width="1"/><g font-size="13" fill="#334155" style="font-variant-numeric: tabular-nums"><text x="41" y="895" text-anchor="middle" dominant-baseline="central">6</text><text x="121" y="895" text-anchor="middle" dominant-baseline="central">12,0</text><text x="246" y="895" text-anchor="middle" dominant-baseline="central">40</text><text x="386" y="895" text-anchor="middle" dominant-baseline="central">14</text><text x="531" y="895" text-anchor="middle" dominant-baseline="central">88,5</text><text x="676" y="895" text-anchor="middle" dominant-baseline="central">40</text><text x="816" y="895" text-anchor="middle" dominant-baseline="central">15</text><text x="961" y="895" text-anchor="middle" dominant-baseline="central">86,7</text><text x="1156" y="895" text-anchor="middle" dominant-baseline="central" font-weight="700">1,9</text></g><line x1="16" y1="906" x2="1276" y2="906" stroke="#e6ebf2" stroke-width="1"/><g font-size="13" fill="#334155" style="font-variant-numeric: tabular-nums"><text x="41" y="917" text-anchor="middle" dominant-baseline="central">7</text><text x="121" y="917" text-anchor="middle" dominant-baseline="central">16,0</text><text x="246" y="917" text-anchor="middle" dominant-baseline="central">54</text><text x="386" y="917" text-anchor="middle" dominant-baseline="central">15</text><text x="531" y="917" text-anchor="middle" dominant-baseline="central">111,8</text><text x="676" y="917" text-anchor="middle" dominant-baseline="central">53</text><text x="816" y="917" text-anchor="middle" dominant-baseline="central">15</text><text x="961" y="917" text-anchor="middle" dominant-baseline="central">110,0</text><text x="1156" y="917" text-anchor="middle" dominant-baseline="central" font-weight="700">1,8</text></g><line x1="16" y1="928" x2="1276" y2="928" stroke="#8fa0b3" stroke-width="1"/><text x="16" y="945" font-size="13" fill="#334155" dominant-baseline="central">Ошибка положения на высотах отчёта: средняя 1,5 км · RMSE 1,6 км · максимум 2,2 км</text></g></svg>