<svg xmlns="http://www.w3.org/2000/svg" viewBox="0 0 1292 1076" width="1600" height="1333" font-family="ui-sans-serif, system-ui, 'Segoe UI', Roboto, Arial, sans-serif"><title>Сравнение с зондированием ВМО 24122 29.09.2026 23:30 UTC, +6 ч</title><rect x="0" y="0" width="1292" height="1076" fill="#ffffff"/><g><line x1="14" y1="22" x2="36" y2="22" stroke="#2a78d6" stroke-width="3" stroke-linecap="round"/><circle cx="25" cy="22" r="4.5" fill="#2a78d6" stroke="#ffffff" stroke-width="1.5"/><text x="46" y="22" font-size="16" font-weight="700" fill="#334155" dominant-baseline="central">Факт (восстановлен по ветру): ВМО 24122</text><text x="46" y="44" font-size="12" fill="#64748b" dominant-baseline="central">выпуск 29.09.2026 23:30 UTC · 68,50 с.ш., 112,43 в.д.</text></g><g transform="translate(46 104)"><rect x="-46" y="-46" width="632" height="662" fill="#ffffff"/><g fill="none"><circle cx="270" cy="270" r="27" stroke="#e6ebf2" stroke-width="0.7"/><circle cx="270" cy="270" r="54" stroke="#e6ebf2" stroke-width="0.7"/><circle cx="270" cy="270" r="81" stroke="#e6ebf2" stroke-width="0.7"/><circle cx="270" cy="270" r="108" stroke="#e6ebf2" stroke-width="0.7"/><circle cx="270" cy="270" r="135" stroke="#b9c5d3" stroke-width="1.6"/><circle cx="270" cy="270" r="162" stroke="#e6ebf2" stroke-width="0.7"/><circle cx="270" cy="270" r="189" stroke="#e6ebf2" stroke-width="0.7"/><circle cx="270" cy="270" r="216" stroke="#e6ebf2" stroke-width="0.7"/><circle cx="270" cy="270" r="243" stroke="#e6ebf2" stroke-width="0.7"/><circle cx="270" cy="270" r="270" stroke="#8fa0b3" stroke-width="1.2"/></g><g><line x1="270" y1="270" x2="270" y2="-18" stroke="#b9c5d3" stroke-width="1"/><line x1="270" y1="270" x2="405" y2="36.17" stroke="#d5dde6" stroke-width="0.6"/><line x1="270" y1="270" x2="503.83" y2="135" stroke="#d5dde6" stroke-width="0.6"/><line x1="270" y1="270" x2="558" y2="270" stroke="#b9c5d3" stroke-width="1"/><line x1="270" y1="270" x2="503.83" y2="405" stroke="#d5dde6" stroke-width="0.6"/><line x1="270" y1="270" x2="405" y2="503.83" stroke="#d5dde6" stroke-width="0.6"/><line x1="270" y1="270" x2="270" y2="558" stroke="#b9c5d3" stroke-width="1"/><line x1="270" y1="270" x2="135" y2="503.83" stroke="#d5dde6" stroke-width="0.6"/><line x1="270" y1="270" x2="36.17" y2="405" stroke="#d5dde6" stroke-width="0.6"/><line x1="270" y1="270" x2="-18" y2="270" stroke="#b9c5d3" stroke-width="1"/><line x1="270" y1="270" x2="36.17" y2="135" stroke="#d5dde6" stroke-width="0.6"/><line x1="270" y1="270" x2="135" y2="36.17" stroke="#d5dde6" stroke-width="0.6"/></g><g stroke="#94a3b8"><line x1="270" y1="0" x2="270" y2="-10" stroke-width="1.2"/><line x1="293.53" y1="1.03" x2="293.79" y2="-1.96" stroke-width="0.7"/><line x1="316.89" y1="4.1" x2="317.41" y2="1.15" stroke-width="0.7"/><line x1="339.88" y1="9.2" x2="341.43" y2="3.4" stroke-width="0.7"/><line x1="362.35" y1="16.28" x2="363.37" y2="13.46" stroke-width="0.7"/><line x1="384.11" y1="25.3" x2="385.37" y2="22.58" stroke-width="0.7"/><line x1="405" y1="36.17" x2="408" y2="30.98" stroke-width="0.7"/><line x1="424.87" y1="48.83" x2="426.59" y2="46.37" stroke-width="0.7"/><line x1="443.55" y1="63.17" x2="445.48" y2="60.87" stroke-width="0.7"/><line x1="460.92" y1="79.08" x2="467.99" y2="72.01" stroke-width="1.2"/><line x1="476.83" y1="96.45" x2="479.13" y2="94.52" stroke-width="0.7"/><line x1="491.17" y1="115.13" x2="493.63" y2="113.41" stroke-width="0.7"/><line x1="503.83" y1="135" x2="509.02" y2="132" stroke-width="0.7"/><line x1="514.7" y1="155.89" x2="517.42" y2="154.63" stroke-width="0.7"/><line x1="523.72" y1="177.65" x2="526.54" y2="176.63" stroke-width="0.7"/><line x1="530.8" y1="200.12" x2="536.6" y2="198.57" stroke-width="0.7"/><line x1="535.9" y1="223.11" x2="538.85" y2="222.59" stroke-width="0.7"/><line x1="538.97" y1="246.47" x2="541.96" y2="246.21" stroke-width="0.7"/><line x1="540" y1="270" x2="550" y2="270" stroke-width="1.2"/><line x1="538.97" y1="293.53" x2="541.96" y2="293.79" stroke-width="0.7"/><line x1="535.9" y1="316.89" x2="538.85" y2="317.41" stroke-width="0.7"/><line x1="530.8" y1="339.88" x2="536.6" y2="341.43" stroke-width="0.7"/><line x1="523.72" y1="362.35" x2="526.54" y2="363.37" stroke-width="0.7"/><line x1="514.7" y1="384.11" x2="517.42" y2="385.37" stroke-width="0.7"/><line x1="503.83" y1="405" x2="509.02" y2="408" stroke-width="0.7"/><line x1="491.17" y1="424.87" x2="493.63" y2="426.59" stroke-width="0.7"/><line x1="476.83" y1="443.55" x2="479.13" y2="445.48" stroke-width="0.7"/><line x1="460.92" y1="460.92" x2="467.99" y2="467.99" stroke-width="1.2"/><line x1="443.55" y1="476.83" x2="445.48" y2="479.13" stroke-width="0.7"/><line x1="424.87" y1="491.17" x2="426.59" y2="493.63" stroke-width="0.7"/><line x1="405" y1="503.83" x2="408" y2="509.02" stroke-width="0.7"/><line x1="384.11" y1="514.7" x2="385.37" y2="517.42" stroke-width="0.7"/><line x1="362.35" y1="523.72" x2="363.37" y2="526.54" stroke-width="0.7"/><line x1="339.88" y1="530.8" x2="341.43" y2="536.6" stroke-width="0.7"/><line x1="316.89" y1="535.9" x2="317.41" y2="538.85" stroke-width="0.7"/><line x1="293.53" y1="538.97" x2="293.79" y2="541.96" stroke-width="0.7"/><line x1="270" y1="540" x2="270" y2="550" stroke-width="1.2"/><line x1="246.47" y1="538.97" x2="246.21" y2="541.96" stroke-width="0.7"/><line x1="223.11" y1="535.9" x2="222.59" y2="538.85" stroke-width="0.7"/><line x1="200.12" y1="530.8" x2="198.57" y2="536.6" stroke-width="0.7"/><line x1="177.65" y1="523.72" x2="176.63" y2="526.54" stroke-width="0.7"/><line x1="155.89" y1="514.7" x2="154.63" y2="517.42" stroke-width="0.7"/><line x1="135" y1="503.83" x2="132" y2="509.02" stroke-width="0.7"/><line x1="115.13" y1="491.17" x2="113.41" y2="493.63" stroke-width="0.7"/><line x1="96.45" y1="476.83" x2="94.52" y2="479.13" stroke-width="0.7"/><line x1="79.08" y1="460.92" x2="72.01" y2="467.99" stroke-width="1.2"/><line x1="63.17" y1="443.55" x2="60.87" y2="445.48" stroke-width="0.7"/><line x1="48.83" y1="424.87" x2="46.37" y2="426.59" stroke-width="0.7"/><line x1="36.17" y1="405" x2="30.98" y2="408" stroke-width="0.7"/><line x1="25.3" y1="384.11" x2="22.58" y2="385.37" stroke-width="0.7"/><line x1="16.28" y1="362.35" x2="13.46" y2="363.37" stroke-width="0.7"/><line x1="9.2" y1="339.88" x2="3.4" y2="341.43" stroke-width="0.7"/><line x1="4.1" y1="316.89" x2="1.15" y2="317.41" stroke-width="0.7"/><line x1="1.03" y1="293.53" x2="-1.96" y2="293.79" stroke-width="0.7"/><line x1="0" y1="270" x2="-10" y2="270" stroke-width="1.2"/><line x1="1.03" y1="246.47" x2="-1.96" y2="246.21" stroke-width="0.7"/><line x1="4.1" y1="223.11" x2="1.15" y2="222.59" stroke-width="0.7"/><line x1="9.2" y1="200.12" x2="3.4" y2="198.57" stroke-width="0.7"/><line x1="16.28" y1="177.65" x2="13.46" y2="176.63" stroke-width="0.7"/><line x1="25.3" y1="155.89" x2="22.58" y2="154.63" stroke-width="0.7"/><line x1="36.17" y1="135" x2="30.98" y2="132" stroke-width="0.7"/><line x1="48.83" y1="115.13" x2="46.37" y2="113.41" stroke-width="0.7"/><line x1="63.17" y1="96.45" x2="60.87" y2="94.52" stroke-width="0.7"/><line x1="79.08" y1="79.08" x2="72.01" y2="72.01" stroke-width="1.2"/><line x1="96.45" y1="63.17" x2="94.52" y2="60.87" stroke-width="0.7"/><line x1="115.13" y1="48.83" x2="113.41" y2="46.37" stroke-width="0.7"/><line x1="135" y1="36.17" x2="132" y2="30.98" stroke-width="0.7"/><line x1="155.89" y1="25.3" x2="154.63" y2="22.58" stroke-width="0.7"/><line x1="177.65" y1="16.28" x2="176.63" y2="13.46" stroke-width="0.7"/><line x1="200.12" y1="9.2" x2="198.57" y2="3.4" stroke-width="0.7"/><line x1="223.11" y1="4.1" x2="222.59" y2="1.15" stroke-width="0.7"/><line x1="246.47" y1="1.03" x2="246.21" y2="-1.96" stroke-width="0.7"/></g><g text-anchor="middle" dominant-baseline="central"><text x="270" y="-26" fill="#334155" font-size="16" font-weight="700">С</text><text x="418" y="13.66" fill="#94a3b8" font-size="9" font-weight="500">30</text><text x="526.34" y="122" fill="#94a3b8" font-size="9" font-weight="500">60</text><text x="566" y="270" fill="#334155" font-size="16" font-weight="700">В</text><text x="526.34" y="418" fill="#94a3b8" font-size="9" font-weight="500">120</text><text x="418" y="526.34" fill="#94a3b8" font-size="9" font-weight="500">150</text><text x="270" y="566" fill="#334155" font-size="16" font-weight="700">Ю</text><text x="122" y="526.34" fill="#94a3b8" font-size="9" font-weight="500">210</text><text x="13.66" y="418" fill="#94a3b8" font-size="9" font-weight="500">240</text><text x="-26" y="270" fill="#334155" font-size="16" font-weight="700">З</text><text x="13.66" y="122" fill="#94a3b8" font-size="9" font-weight="500">300</text><text x="122" y="13.66" fill="#94a3b8" font-size="9" font-weight="500">330</text></g><g fill="#94a3b8" font-size="8" text-anchor="start" dominant-baseline="central"><text x="273" y="216">20</text><text x="273" y="162">40</text><text x="273" y="108">60</text><text x="273" y="54">80</text></g><g fill="none" stroke-linejoin="round" stroke-linecap="round"><polyline points="300,2 265,212 126,39" stroke="#93a3b6" stroke-width="0.9"/><polyline points="83,74 209,230 19,169" stroke="#93a3b6" stroke-width="0.9"/><polyline points="9,195 241,267 52,399 20,373" stroke="#93a3b6" stroke-width="0.9"/><polyline points="70,416 248,299 252,329 235,530" stroke="#93a3b6" stroke-width="0.9"/><polyline points="200,525 71,414" stroke="#93a3b6" stroke-width="0.9"/><polyline points="262,531 269,480 276,532" stroke="#93a3b6" stroke-width="0.9"/><polyline points="328,528 317,407 374,511" stroke="#93a3b6" stroke-width="0.9"/><polyline points="420,486 406,458 430,481" stroke="#93a3b6" stroke-width="0.9"/><polyline points="475,435 424,387 488,423" stroke="#93a3b6" stroke-width="0.9"/><polyline points="503,372 450,338 503,355 503,371" stroke="#93a3b6" stroke-width="0.9"/><polyline points="472,97 500,329 339,274 315,257 473,97" stroke="#93a3b6" stroke-width="0.9"/><polyline points="434,56 296,199 328,6" stroke="#93a3b6" stroke-width="0.9"/><polyline points="20,169 205,229 335,270 499,328 527,336" stroke="#5b7391" stroke-width="1.1"/><polyline points="12,197 238,265 450,338 502,356 518,360" stroke="#5b7391" stroke-width="1.1"/><polyline points="127,42 265,209" stroke="#5b7391" stroke-width="1.1"/><polyline points="84,73 205,226" stroke="#5b7391" stroke-width="1.1"/><polyline points="204,224 266,244" stroke="#5b7391" stroke-width="1.1"/><polyline points="264,209 265,244" stroke="#5b7391" stroke-width="1.1"/><polyline points="37,405 51,397 237,268" stroke="#5b7391" stroke-width="1.1"/><polyline points="51,424 71,415 245,299 267,279" stroke="#5b7391" stroke-width="1.1"/><polyline points="265,279 235,266" stroke="#5b7391" stroke-width="1.1"/><polyline points="432,56 297,196 276,243" stroke="#5b7391" stroke-width="1.1"/><polyline points="473,98 310,258" stroke="#5b7391" stroke-width="1.1"/><polyline points="309,257 275,242" stroke="#5b7391" stroke-width="1.1"/><polyline points="22,374 46,394" stroke="#5b7391" stroke-width="1.1"/><polyline points="44,392 35,400" stroke="#5b7391" stroke-width="1.1"/><polyline points="74,419 202,526" stroke="#5b7391" stroke-width="1.1"/><polyline points="51,427 74,417" stroke="#5b7391" stroke-width="1.1"/><polyline points="234,529 252,329 249,302" stroke="#5b7391" stroke-width="1.1"/><polyline points="263,531 268,478 270,281" stroke="#5b7391" stroke-width="1.1"/><polyline points="248,302 269,280" stroke="#5b7391" stroke-width="1.1"/><polyline points="326,10 298,179 296,190" stroke="#5b7391" stroke-width="1.1"/><polyline points="294,190 271,239" stroke="#5b7391" stroke-width="1.1"/><polyline points="268,238 266,205" stroke="#5b7391" stroke-width="1.1"/><polyline points="266,236 271,236" stroke="#5b7391" stroke-width="1.1"/><polyline points="299,2 266,202 266,206" stroke="#5b7391" stroke-width="1.1"/><polyline points="326,525 317,409 278,283" stroke="#5b7391" stroke-width="1.1"/><polyline points="275,529 270,489 273,284" stroke="#5b7391" stroke-width="1.1"/><polyline points="273,285 278,284" stroke="#5b7391" stroke-width="1.1"/><polyline points="375,511 320,412 282,287" stroke="#5b7391" stroke-width="1.1"/><polyline points="421,485 403,459 288,285" stroke="#5b7391" stroke-width="1.1"/><polyline points="288,285 282,287" stroke="#5b7391" stroke-width="1.1"/><polyline points="428,482 408,458 295,289" stroke="#5b7391" stroke-width="1.1"/><polyline points="453,459 306,292" stroke="#5b7391" stroke-width="1.1"/><polyline points="305,293 294,289" stroke="#5b7391" stroke-width="1.1"/><polyline points="455,455 312,294" stroke="#5b7391" stroke-width="1.1"/><polyline points="476,437 425,388 325,298" stroke="#5b7391" stroke-width="1.1"/><polyline points="325,299 316,296" stroke="#5b7391" stroke-width="1.1"/><polyline points="485,421 429,388 337,302" stroke="#5b7391" stroke-width="1.1"/><polyline points="501,369 455,341 355,308" stroke="#5b7391" stroke-width="1.1"/><polyline points="354,307 338,304" stroke="#5b7391" stroke-width="1.1"/><polyline points="501,369 504,392" stroke="#5b7391" stroke-width="1.1"/><polyline points="507,387 504,359" stroke="#5b7391" stroke-width="1.1"/><polyline points="504,358 517,361" stroke="#5b7391" stroke-width="1.1"/><polyline points="472,101 500,324" stroke="#5b7391" stroke-width="1.1"/><polyline points="501,323 526,328" stroke="#5b7391" stroke-width="1.1"/><polyline points="525,327 505,145" stroke="#5b7391" stroke-width="1.1"/></g><g font-size="9" fill="#64748b" text-anchor="middle"><text x="112.5" y="199" dy="-3" transform="rotate(17.97 112.5 199)">B927</text><text x="196" y="125.5" dy="-3" transform="rotate(50.43 196 125.5)">B153/M131</text><text x="158" y="357" dy="-3" transform="rotate(-33.69 158 357)">R27</text><text x="138" y="472.5" dy="-3" transform="rotate(39.89 138 472.5)">B243</text><text x="269" y="379.5" dy="-3" transform="rotate(-89.42 269 379.5)">G112/M171</text><text x="297.5" y="346" dy="-3" transform="rotate(72.8 297.5 346)">W325</text><text x="301" y="349.5" dy="-3" transform="rotate(73.09 301 349.5)">B939</text><text x="351.5" y="373.5" dy="-3" transform="rotate(56.23 351.5 373.5)">M131</text><text x="383.5" y="374.5" dy="-3" transform="rotate(48.39 383.5 374.5)">G231</text><text x="383" y="345" dy="-3" transform="rotate(43.07 383 345)">W190</text><text x="486" y="212.5" dy="-3" transform="rotate(82.84 486 212.5)">T656</text></g><g font-size="9" fill="#334155" dominant-baseline="hanging"><text x="273" y="250" transform="rotate(0 273 250)">♦ UERO</text><text x="114" y="60" transform="rotate(0 114 60)">▲IDIRA</text><text x="360" y="357" transform="rotate(0 360 357)">▲RELSA</text><text x="145" y="88" transform="rotate(55 145 88)">B153/M131</text><text x="46" y="182" transform="rotate(20 46 182)">B927</text><text x="79" y="387" transform="rotate(-30 79 387)">R27</text><text x="98" y="448" transform="rotate(35 98 448)">B243</text><text x="243" y="511" transform="rotate(-85 243 511)">G112/M171</text><text x="286" y="511" transform="rotate(-95 286 511)">W325</text><text x="385" y="461" transform="rotate(60 385 461)">B939</text><text x="421" y="430" transform="rotate(50 421 430)">M131</text><text x="434" y="413" transform="rotate(45 434 413)">G231</text><text x="463" y="367" transform="rotate(30 463 367)">W190</text><text x="459" y="319" transform="rotate(20 459 319)">B927</text><text x="497" y="254" transform="rotate(-100 497 254)">T656</text><text x="415" y="98" transform="rotate(-50 415 98)">R27</text><text x="289" y="100" transform="rotate(-80 289 100)">G112/M171</text></g><g fill="none" stroke-linecap="round" stroke-linejoin="round"><path d="M270 270 L270.03 270.02 L270.08 270.04 L270.14 270.07 L270.22 270.1 L270.32 270.13 L270.42 270.16 L270.54 270.2 L270.68 270.24 L270.83 270.28 L270.99 270.32 L271.16 270.37 L271.36 270.42 L271.57 270.45 L271.78 270.5 L272 270.56 L272.22 270.63 L272.43 270.71 L272.65 270.81 L272.86 270.91 L273.07 271.03 L273.28 271.16 L273.49 271.3 L273.7 271.45 L273.91 271.61 L274.11 271.79 L274.32 271.96 L274.52 272.13 L274.7 272.31 L274.87 272.48 L275.03 272.65 L275.17 272.82 L275.3 273 L275.42 273.17 L275.53 273.33 L275.62 273.5 L275.71 273.66 L275.8 273.82 L275.89 273.99 L275.97 274.15 L276.05 274.32 L276.12 274.48 L276.19 274.64 L276.26 274.81 L276.33 274.97 L276.39 275.13 L276.45 275.29 L276.51 275.45 L276.56 275.61 L276.61 275.77 L276.66 275.93 L276.7 276.09 L276.75 276.24 L276.78 276.41 L276.82 276.59 L276.85 276.78 L276.86 276.99 L276.86 277.21 L276.86 277.45 L276.86 277.71 L276.86 277.99 L276.86 278.29 L276.87 278.59 L276.88 278.88 L276.9 279.18 L276.93 279.48 L276.95 279.77 L276.97 280.07 L276.98 280.36 L276.98 280.66 L276.98 280.96 L276.97 281.25 L276.96 281.53 L276.95 281.81 L276.93 282.08 L276.91 282.35 L276.9 282.64 L276.9 282.94 L276.92 283.26 L276.95 283.58 L276.98 283.91 L277 284.24 L277.03 284.57 L277.06 284.91 L277.09 285.25 L277.12 285.59 L277.16 285.94 L277.19 286.3 L277.22 286.65 L277.25 287.01 L277.28 287.38 L277.32 287.74 L277.35 288.12 L277.38 288.49 L277.42 288.87 L277.45 289.25 L277.48 289.64 L277.52 290.03 L277.55 290.43 L277.59 290.83 L277.62 291.23 L277.65 291.64 L277.67 292.04 L277.68 292.44 L277.68 292.85 L277.68 293.25 L277.7 293.66 L277.72 294.06 L277.75 294.47 L277.79 294.87 L277.83 295.28 L277.86 295.69 L277.9 296.1 L277.94 296.52 L277.97 296.93 L278.01 297.35 L278.05 297.77 L278.09 298.2 L278.12 298.63 L278.16 299.05 L278.19 299.49 L278.21 299.93 L278.21 300.38 L278.2 300.84 L278.17 301.31 L278.13 301.79 L278.07 302.28 L278 302.78 L277.91 303.28 L277.82 303.8 L277.72 304.32 L277.63 304.86 L277.54 305.4 L277.44 305.95 L277.34 306.52 L277.24 307.09 L277.14 307.68 L277.03 308.26 L276.93 308.85 L276.83 309.43 L276.73 310.02 L276.62 310.61 L276.52 311.2 L276.42 311.79 L276.31 312.38 L276.21 312.97 L276.1 313.56 L276 314.15 L275.9 314.75 L275.79 315.34 L275.69 315.94 L275.58 316.53 L275.48 317.13 L275.37 317.72 L275.27 318.32 L275.16 318.92 L275.06 319.52 L274.95 320.12 L274.85 320.72 L274.74 321.32 L274.64 321.92 L274.53 322.52 L274.43 323.12 L274.32 323.73 L274.21 324.33 L274.11 324.94 L274 325.54 L273.89 326.15 L273.79 326.76 L273.68 327.36 L273.57 327.97 L273.47 328.58 L273.36 329.19 L273.25 329.8 L273.15 330.41 L273.04 331.02 L272.93 331.63 L272.82 332.25 L272.71 332.86 L272.61 333.46 L272.51 334.06 L272.42 334.65 L272.33 335.22 L272.25 335.79 L272.18 336.35 L272.1 336.9 L272.04 337.45 L271.98 337.98 L271.92 338.51 L271.88 339.02 L271.84 339.53 L271.8 340.01 L271.77 340.49 L271.75 340.94 L271.73 341.38 L271.73 341.81 L271.72 342.22 L271.72 342.62 L271.73 343.03 L271.74 343.42 L271.76 343.81 L271.78 344.2 L271.82 344.57 L271.86 344.94 L271.92 345.31 L271.98 345.66 L272.05 346.01 L272.13 346.36 L272.21 346.69 L272.31 347.02 L272.41 347.34 L272.51 347.66 L272.62 347.96 L272.74 348.26 L272.86 348.55 L272.99 348.83 L273.13 349.11 L273.28 349.38 L273.43 349.63 L273.6 349.88 L273.77 350.13 L273.95 350.37 L274.13 350.6 L274.32 350.82 L274.52 351.05 L274.72 351.26 L274.93 351.47 L275.14 351.68 L275.37 351.87 L275.59 352.06 L275.8 352.26 L275.99 352.46 L276.17 352.66 L276.33 352.87 L276.48 353.08 L276.61 353.29 L276.73 353.51 L276.83 353.73 L276.95 353.94 L277.07 354.16 L277.19 354.38 L277.33 354.59 L277.47 354.8 L277.63 355.01 L277.79 355.22 L277.96 355.43 L278.13 355.64 L278.31 355.84 L278.49 356.04 L278.67 356.24 L278.85 356.44 L279.03 356.64 L279.22 356.83 L279.41 357.02 L279.6 357.21 L279.79 357.4 L279.98 357.59 L280.18 357.77 L280.37 357.96 L280.57 358.14 L280.77 358.32 L280.98 358.5 L281.18 358.67 L281.39 358.84 L281.6 359.02 L281.8 359.19 L282 359.36 L282.21 359.53 L282.41 359.7 L282.61 359.87 L282.81 360.03 L283.01 360.2 L283.21 360.36 L283.4 360.53 L283.6 360.69 L283.79 360.86 L283.99 361.02 L284.18 361.18 L284.37 361.34 L284.56 361.5 L284.75 361.65 L284.94 361.81 L285.13 361.97 L285.31 362.13 L285.49 362.29 L285.66 362.46 L285.83 362.64 L285.99 362.82 L286.15 363 L286.3 363.2 L286.45 363.39 L286.59 363.6 L286.72 363.81 L286.85 364.02 L286.98 364.24 L287.09 364.47 L287.21 364.7 L287.31 364.94 L287.42 365.19 L287.51 365.44 L287.61 365.69 L287.7 365.93 L287.8 366.17 L287.89 366.4 L287.99 366.63 L288.09 366.85 L288.19 367.06 L288.29 367.27 L288.39 367.47 L288.49 367.66 L288.6 367.85 L288.7 368.03 L288.81 368.21 L288.91 368.38 L289.02 368.54 L289.13 368.7 L289.23 368.85 L289.33 368.99 L289.43 369.12 L289.52 369.26 L289.63 369.39" stroke="#ffffff" stroke-width="5" opacity="0.85"/><path d="M270 270 L270.03 270.02 L270.08 270.04 L270.14 270.07 L270.22 270.1 L270.32 270.13 L270.42 270.16 L270.54 270.2 L270.68 270.24 L270.83 270.28 L270.99 270.32 L271.16 270.37 L271.36 270.42 L271.57 270.45 L271.78 270.5 L272 270.56 L272.22 270.63 L272.43 270.71 L272.65 270.81 L272.86 270.91 L273.07 271.03 L273.28 271.16 L273.49 271.3 L273.7 271.45 L273.91 271.61 L274.11 271.79 L274.32 271.96 L274.52 272.13 L274.7 272.31 L274.87 272.48 L275.03 272.65 L275.17 272.82 L275.3 273 L275.42 273.17 L275.53 273.33 L275.62 273.5 L275.71 273.66 L275.8 273.82 L275.89 273.99 L275.97 274.15 L276.05 274.32 L276.12 274.48 L276.19 274.64 L276.26 274.81 L276.33 274.97 L276.39 275.13 L276.45 275.29 L276.51 275.45 L276.56 275.61 L276.61 275.77 L276.66 275.93 L276.7 276.09 L276.75 276.24 L276.78 276.41 L276.82 276.59 L276.85 276.78 L276.86 276.99 L276.86 277.21 L276.86 277.45 L276.86 277.71 L276.86 277.99 L276.86 278.29 L276.87 278.59 L276.88 278.88 L276.9 279.18 L276.93 279.48 L276.95 279.77 L276.97 280.07 L276.98 280.36 L276.98 280.66 L276.98 280.96 L276.97 281.25 L276.96 281.53 L276.95 281.81 L276.93 282.08 L276.91 282.35 L276.9 282.64 L276.9 282.94 L276.92 283.26 L276.95 283.58 L276.98 283.91 L277 284.24 L277.03 284.57 L277.06 284.91 L277.09 285.25 L277.12 285.59 L277.16 285.94 L277.19 286.3 L277.22 286.65 L277.25 287.01 L277.28 287.38 L277.32 287.74 L277.35 288.12 L277.38 288.49 L277.42 288.87 L277.45 289.25 L277.48 289.64 L277.52 290.03 L277.55 290.43 L277.59 290.83 L277.62 291.23 L277.65 291.64 L277.67 292.04 L277.68 292.44 L277.68 292.85 L277.68 293.25 L277.7 293.66 L277.72 294.06 L277.75 294.47 L277.79 294.87 L277.83 295.28 L277.86 295.69 L277.9 296.1 L277.94 296.52 L277.97 296.93 L278.01 297.35 L278.05 297.77 L278.09 298.2 L278.12 298.63 L278.16 299.05 L278.19 299.49 L278.21 299.93 L278.21 300.38 L278.2 300.84 L278.17 301.31 L278.13 301.79 L278.07 302.28 L278 302.78 L277.91 303.28 L277.82 303.8 L277.72 304.32 L277.63 304.86 L277.54 305.4 L277.44 305.95 L277.34 306.52 L277.24 307.09 L277.14 307.68 L277.03 308.26 L276.93 308.85 L276.83 309.43 L276.73 310.02 L276.62 310.61 L276.52 311.2 L276.42 311.79 L276.31 312.38 L276.21 312.97 L276.1 313.56 L276 314.15 L275.9 314.75 L275.79 315.34 L275.69 315.94 L275.58 316.53 L275.48 317.13 L275.37 317.72 L275.27 318.32 L275.16 318.92 L275.06 319.52 L274.95 320.12 L274.85 320.72 L274.74 321.32 L274.64 321.92 L274.53 322.52 L274.43 323.12 L274.32 323.73 L274.21 324.33 L274.11 324.94 L274 325.54 L273.89 326.15 L273.79 326.76 L273.68 327.36 L273.57 327.97 L273.47 328.58 L273.36 329.19 L273.25 329.8 L273.15 330.41 L273.04 331.02 L272.93 331.63 L272.82 332.25 L272.71 332.86 L272.61 333.46 L272.51 334.06 L272.42 334.65 L272.33 335.22 L272.25 335.79 L272.18 336.35 L272.1 336.9 L272.04 337.45 L271.98 337.98 L271.92 338.51 L271.88 339.02 L271.84 339.53 L271.8 340.01 L271.77 340.49 L271.75 340.94 L271.73 341.38 L271.73 341.81 L271.72 342.22 L271.72 342.62 L271.73 343.03 L271.74 343.42 L271.76 343.81 L271.78 344.2 L271.82 344.57 L271.86 344.94 L271.92 345.31 L271.98 345.66 L272.05 346.01 L272.13 346.36 L272.21 346.69 L272.31 347.02 L272.41 347.34 L272.51 347.66 L272.62 347.96 L272.74 348.26 L272.86 348.55 L272.99 348.83 L273.13 349.11 L273.28 349.38 L273.43 349.63 L273.6 349.88 L273.77 350.13 L273.95 350.37 L274.13 350.6 L274.32 350.82 L274.52 351.05 L274.72 351.26 L274.93 351.47 L275.14 351.68 L275.37 351.87 L275.59 352.06 L275.8 352.26 L275.99 352.46 L276.17 352.66 L276.33 352.87 L276.48 353.08 L276.61 353.29 L276.73 353.51 L276.83 353.73 L276.95 353.94 L277.07 354.16 L277.19 354.38 L277.33 354.59 L277.47 354.8 L277.63 355.01 L277.79 355.22 L277.96 355.43 L278.13 355.64 L278.31 355.84 L278.49 356.04 L278.67 356.24 L278.85 356.44 L279.03 356.64 L279.22 356.83 L279.41 357.02 L279.6 357.21 L279.79 357.4 L279.98 357.59 L280.18 357.77 L280.37 357.96 L280.57 358.14 L280.77 358.32 L280.98 358.5 L281.18 358.67 L281.39 358.84 L281.6 359.02 L281.8 359.19 L282 359.36 L282.21 359.53 L282.41 359.7 L282.61 359.87 L282.81 360.03 L283.01 360.2 L283.21 360.36 L283.4 360.53 L283.6 360.69 L283.79 360.86 L283.99 361.02 L284.18 361.18 L284.37 361.34 L284.56 361.5 L284.75 361.65 L284.94 361.81 L285.13 361.97 L285.31 362.13 L285.49 362.29 L285.66 362.46 L285.83 362.64 L285.99 362.82 L286.15 363 L286.3 363.2 L286.45 363.39 L286.59 363.6 L286.72 363.81 L286.85 364.02 L286.98 364.24 L287.09 364.47 L287.21 364.7 L287.31 364.94 L287.42 365.19 L287.51 365.44 L287.61 365.69 L287.7 365.93 L287.8 366.17 L287.89 366.4 L287.99 366.63 L288.09 366.85 L288.19 367.06 L288.29 367.27 L288.39 367.47 L288.49 367.66 L288.6 367.85 L288.7 368.03 L288.81 368.21 L288.91 368.38 L289.02 368.54 L289.13 368.7 L289.23 368.85 L289.33 368.99 L289.43 369.12 L289.52 369.26 L289.63 369.39" stroke="#2a78d6" stroke-width="2.2"/></g><g><circle cx="270" cy="270" r="4.5" fill="#ffffff"/><circle cx="270" cy="270" r="2.6" fill="#0f172a"/></g><g><circle cx="275.03" cy="272.65" r="8" fill="#2a78d6" stroke="#ffffff" stroke-width="1.4"/><text x="275.03" y="272.65" fill="#ffffff" font-size="9.5" font-weight="700" text-anchor="middle" dominant-baseline="central">1</text><circle cx="276.86" cy="277.99" r="8" fill="#2a78d6" stroke="#ffffff" stroke-width="1.4"/><text x="276.86" y="277.99" fill="#ffffff" font-size="9.5" font-weight="700" text-anchor="middle" dominant-baseline="central">2</text><circle cx="277.62" cy="291.23" r="8" fill="#2a78d6" stroke="#ffffff" stroke-width="1.4"/><text x="277.62" y="291.23" fill="#ffffff" font-size="9.5" font-weight="700" text-anchor="middle" dominant-baseline="central">3</text><circle cx="276.73" cy="310.02" r="8" fill="#2a78d6" stroke="#ffffff" stroke-width="1.4"/><text x="276.73" y="310.02" fill="#ffffff" font-size="9.5" font-weight="700" text-anchor="middle" dominant-baseline="central">4</text><circle cx="272.51" cy="334.06" r="8" fill="#2a78d6" stroke="#ffffff" stroke-width="1.4"/><text x="272.51" y="334.06" fill="#ffffff" font-size="9.5" font-weight="700" text-anchor="middle" dominant-baseline="central">5</text><circle cx="277.19" cy="354.38" r="8" fill="#2a78d6" stroke="#ffffff" stroke-width="1.4"/><text x="277.19" y="354.38" fill="#ffffff" font-size="9.5" font-weight="700" text-anchor="middle" dominant-baseline="central">6</text><circle cx="289.63" cy="369.39" r="8" fill="#2a78d6" stroke="#ffffff" stroke-width="1.4"/><text x="289.63" y="369.39" fill="#ffffff" font-size="9.5" font-weight="700" text-anchor="middle" dominant-baseline="central">7</text></g><g font-size="11" fill="#64748b" dominant-baseline="central"><text x="-40" y="602">до 16,0 км за 53 мин</text><text x="580" y="602" text-anchor="end">1 деление — 10 км, радиус 100 км</text></g></g><g><line x1="674" y1="22" x2="696" y2="22" stroke="#eb6834" stroke-width="3" stroke-linecap="round"/><circle cx="685" cy="22" r="4.5" fill="#eb6834" stroke="#ffffff" stroke-width="1.5"/><text x="706" y="22" font-size="16" font-weight="700" fill="#334155" dominant-baseline="central">Прогноз GRIB: прогон 29.09.2026 18:00 UTC, +6 ч</text><text x="706" y="44" font-size="12" fill="#64748b" dominant-baseline="central">Линейная · у земли: нижний уровень · подъём: 5 м/с · сетка: узел</text></g><g transform="translate(706 104)"><rect x="-46" y="-46" width="632" height="662" fill="#ffffff"/><g fill="none"><circle cx="270" cy="270" r="27" stroke="#e6ebf2" stroke-width="0.7"/><circle cx="270" cy="270" r="54" stroke="#e6ebf2" stroke-width="0.7"/><circle cx="270" cy="270" r="81" stroke="#e6ebf2" stroke-width="0.7"/><circle cx="270" cy="270" r="108" stroke="#e6ebf2" stroke-width="0.7"/><circle cx="270" cy="270" r="135" stroke="#b9c5d3" stroke-width="1.6"/><circle cx="270" cy="270" r="162" stroke="#e6ebf2" stroke-width="0.7"/><circle cx="270" cy="270" r="189" stroke="#e6ebf2" stroke-width="0.7"/><circle cx="270" cy="270" r="216" stroke="#e6ebf2" stroke-width="0.7"/><circle cx="270" cy="270" r="243" stroke="#e6ebf2" stroke-width="0.7"/><circle cx="270" cy="270" r="270" stroke="#8fa0b3" stroke-width="1.2"/></g><g><line x1="270" y1="270" x2="270" y2="-18" stroke="#b9c5d3" stroke-width="1"/><line x1="270" y1="270" x2="405" y2="36.17" stroke="#d5dde6" stroke-width="0.6"/><line x1="270" y1="270" x2="503.83" y2="135" stroke="#d5dde6" stroke-width="0.6"/><line x1="270" y1="270" x2="558" y2="270" stroke="#b9c5d3" stroke-width="1"/><line x1="270" y1="270" x2="503.83" y2="405" stroke="#d5dde6" stroke-width="0.6"/><line x1="270" y1="270" x2="405" y2="503.83" stroke="#d5dde6" stroke-width="0.6"/><line x1="270" y1="270" x2="270" y2="558" stroke="#b9c5d3" stroke-width="1"/><line x1="270" y1="270" x2="135" y2="503.83" stroke="#d5dde6" stroke-width="0.6"/><line x1="270" y1="270" x2="36.17" y2="405" stroke="#d5dde6" stroke-width="0.6"/><line x1="270" y1="270" x2="-18" y2="270" stroke="#b9c5d3" stroke-width="1"/><line x1="270" y1="270" x2="36.17" y2="135" stroke="#d5dde6" stroke-width="0.6"/><line x1="270" y1="270" x2="135" y2="36.17" stroke="#d5dde6" stroke-width="0.6"/></g><g stroke="#94a3b8"><line x1="270" y1="0" x2="270" y2="-10" stroke-width="1.2"/><line x1="293.53" y1="1.03" x2="293.79" y2="-1.96" stroke-width="0.7"/><line x1="316.89" y1="4.1" x2="317.41" y2="1.15" stroke-width="0.7"/><line x1="339.88" y1="9.2" x2="341.43" y2="3.4" stroke-width="0.7"/><line x1="362.35" y1="16.28" x2="363.37" y2="13.46" stroke-width="0.7"/><line x1="384.11" y1="25.3" x2="385.37" y2="22.58" stroke-width="0.7"/><line x1="405" y1="36.17" x2="408" y2="30.98" stroke-width="0.7"/><line x1="424.87" y1="48.83" x2="426.59" y2="46.37" stroke-width="0.7"/><line x1="443.55" y1="63.17" x2="445.48" y2="60.87" stroke-width="0.7"/><line x1="460.92" y1="79.08" x2="467.99" y2="72.01" stroke-width="1.2"/><line x1="476.83" y1="96.45" x2="479.13" y2="94.52" stroke-width="0.7"/><line x1="491.17" y1="115.13" x2="493.63" y2="113.41" stroke-width="0.7"/><line x1="503.83" y1="135" x2="509.02" y2="132" stroke-width="0.7"/><line x1="514.7" y1="155.89" x2="517.42" y2="154.63" stroke-width="0.7"/><line x1="523.72" y1="177.65" x2="526.54" y2="176.63" stroke-width="0.7"/><line x1="530.8" y1="200.12" x2="536.6" y2="198.57" stroke-width="0.7"/><line x1="535.9" y1="223.11" x2="538.85" y2="222.59" stroke-width="0.7"/><line x1="538.97" y1="246.47" x2="541.96" y2="246.21" stroke-width="0.7"/><line x1="540" y1="270" x2="550" y2="270" stroke-width="1.2"/><line x1="538.97" y1="293.53" x2="541.96" y2="293.79" stroke-width="0.7"/><line x1="535.9" y1="316.89" x2="538.85" y2="317.41" stroke-width="0.7"/><line x1="530.8" y1="339.88" x2="536.6" y2="341.43" stroke-width="0.7"/><line x1="523.72" y1="362.35" x2="526.54" y2="363.37" stroke-width="0.7"/><line x1="514.7" y1="384.11" x2="517.42" y2="385.37" stroke-width="0.7"/><line x1="503.83" y1="405" x2="509.02" y2="408" stroke-width="0.7"/><line x1="491.17" y1="424.87" x2="493.63" y2="426.59" stroke-width="0.7"/><line x1="476.83" y1="443.55" x2="479.13" y2="445.48" stroke-width="0.7"/><line x1="460.92" y1="460.92" x2="467.99" y2="467.99" stroke-width="1.2"/><line x1="443.55" y1="476.83" x2="445.48" y2="479.13" stroke-width="0.7"/><line x1="424.87" y1="491.17" x2="426.59" y2="493.63" stroke-width="0.7"/><line x1="405" y1="503.83" x2="408" y2="509.02" stroke-width="0.7"/><line x1="384.11" y1="514.7" x2="385.37" y2="517.42" stroke-width="0.7"/><line x1="362.35" y1="523.72" x2="363.37" y2="526.54" stroke-width="0.7"/><line x1="339.88" y1="530.8" x2="341.43" y2="536.6" stroke-width="0.7"/><line x1="316.89" y1="535.9" x2="317.41" y2="538.85" stroke-width="0.7"/><line x1="293.53" y1="538.97" x2="293.79" y2="541.96" stroke-width="0.7"/><line x1="270" y1="540" x2="270" y2="550" stroke-width="1.2"/><line x1="246.47" y1="538.97" x2="246.21" y2="541.96" stroke-width="0.7"/><line x1="223.11" y1="535.9" x2="222.59" y2="538.85" stroke-width="0.7"/><line x1="200.12" y1="530.8" x2="198.57" y2="536.6" stroke-width="0.7"/><line x1="177.65" y1="523.72" x2="176.63" y2="526.54" stroke-width="0.7"/><line x1="155.89" y1="514.7" x2="154.63" y2="517.42" stroke-width="0.7"/><line x1="135" y1="503.83" x2="132" y2="509.02" stroke-width="0.7"/><line x1="115.13" y1="491.17" x2="113.41" y2="493.63" stroke-width="0.7"/><line x1="96.45" y1="476.83" x2="94.52" y2="479.13" stroke-width="0.7"/><line x1="79.08" y1="460.92" x2="72.01" y2="467.99" stroke-width="1.2"/><line x1="63.17" y1="443.55" x2="60.87" y2="445.48" stroke-width="0.7"/><line x1="48.83" y1="424.87" x2="46.37" y2="426.59" stroke-width="0.7"/><line x1="36.17" y1="405" x2="30.98" y2="408" stroke-width="0.7"/><line x1="25.3" y1="384.11" x2="22.58" y2="385.37" stroke-width="0.7"/><line x1="16.28" y1="362.35" x2="13.46" y2="363.37" stroke-width="0.7"/><line x1="9.2" y1="339.88" x2="3.4" y2="341.43" stroke-width="0.7"/><line x1="4.1" y1="316.89" x2="1.15" y2="317.41" stroke-width="0.7"/><line x1="1.03" y1="293.53" x2="-1.96" y2="293.79" stroke-width="0.7"/><line x1="0" y1="270" x2="-10" y2="270" stroke-width="1.2"/><line x1="1.03" y1="246.47" x2="-1.96" y2="246.21" stroke-width="0.7"/><line x1="4.1" y1="223.11" x2="1.15" y2="222.59" stroke-width="0.7"/><line x1="9.2" y1="200.12" x2="3.4" y2="198.57" stroke-width="0.7"/><line x1="16.28" y1="177.65" x2="13.46" y2="176.63" stroke-width="0.7"/><line x1="25.3" y1="155.89" x2="22.58" y2="154.63" stroke-width="0.7"/><line x1="36.17" y1="135" x2="30.98" y2="132" stroke-width="0.7"/><line x1="48.83" y1="115.13" x2="46.37" y2="113.41" stroke-width="0.7"/><line x1="63.17" y1="96.45" x2="60.87" y2="94.52" stroke-width="0.7"/><line x1="79.08" y1="79.08" x2="72.01" y2="72.01" stroke-width="1.2"/><line x1="96.45" y1="63.17" x2="94.52" y2="60.87" stroke-width="0.7"/><line x1="115.13" y1="48.83" x2="113.41" y2="46.37" stroke-width="0.7"/><line x1="135" y1="36.17" x2="132" y2="30.98" stroke-width="0.7"/><line x1="155.89" y1="25.3" x2="154.63" y2="22.58" stroke-width="0.7"/><line x1="177.65" y1="16.28" x2="176.63" y2="13.46" stroke-width="0.7"/><line x1="200.12" y1="9.2" x2="198.57" y2="3.4" stroke-width="0.7"/><line x1="223.11" y1="4.1" x2="222.59" y2="1.15" stroke-width="0.7"/><line x1="246.47" y1="1.03" x2="246.21" y2="-1.96" stroke-width="0.7"/></g><g text-anchor="middle" dominant-baseline="central"><text x="270" y="-26" fill="#334155" font-size="16" font-weight="700">С</text><text x="418" y="13.66" fill="#94a3b8" font-size="9" font-weight="500">30</text><text x="526.34" y="122" fill="#94a3b8" font-size="9" font-weight="500">60</text><text x="566" y="270" fill="#334155" font-size="16" font-weight="700">В</text><text x="526.34" y="418" fill="#94a3b8" font-size="9" font-weight="500">120</text><text x="418" y="526.34" fill="#94a3b8" font-size="9" font-weight="500">150</text><text x="270" y="566" fill="#334155" font-size="16" font-weight="700">Ю</text><text x="122" y="526.34" fill="#94a3b8" font-size="9" font-weight="500">210</text><text x="13.66" y="418" fill="#94a3b8" font-size="9" font-weight="500">240</text><text x="-26" y="270" fill="#334155" font-size="16" font-weight="700">З</text><text x="13.66" y="122" fill="#94a3b8" font-size="9" font-weight="500">300</text><text x="122" y="13.66" fill="#94a3b8" font-size="9" font-weight="500">330</text></g><g fill="#94a3b8" font-size="8" text-anchor="start" dominant-baseline="central"><text x="273" y="216">20</text><text x="273" y="162">40</text><text x="273" y="108">60</text><text x="273" y="54">80</text></g><g fill="none" stroke-linejoin="round" stroke-linecap="round"><polyline points="300,2 265,212 126,39" stroke="#93a3b6" stroke-width="0.9"/><polyline points="83,74 209,230 19,169" stroke="#93a3b6" stroke-width="0.9"/><polyline points="9,195 241,267 52,399 20,373" stroke="#93a3b6" stroke-width="0.9"/><polyline points="70,416 248,299 252,329 235,530" stroke="#93a3b6" stroke-width="0.9"/><polyline points="200,525 71,414" stroke="#93a3b6" stroke-width="0.9"/><polyline points="262,531 269,480 276,532" stroke="#93a3b6" stroke-width="0.9"/><polyline points="328,528 317,407 374,511" stroke="#93a3b6" stroke-width="0.9"/><polyline points="420,486 406,458 430,481" stroke="#93a3b6" stroke-width="0.9"/><polyline points="475,435 424,387 488,423" stroke="#93a3b6" stroke-width="0.9"/><polyline points="503,372 450,338 503,355 503,371" stroke="#93a3b6" stroke-width="0.9"/><polyline points="472,97 500,329 339,274 315,257 473,97" stroke="#93a3b6" stroke-width="0.9"/><polyline points="434,56 296,199 328,6" stroke="#93a3b6" stroke-width="0.9"/><polyline points="20,169 205,229 335,270 499,328 527,336" stroke="#5b7391" stroke-width="1.1"/><polyline points="12,197 238,265 450,338 502,356 518,360" stroke="#5b7391" stroke-width="1.1"/><polyline points="127,42 265,209" stroke="#5b7391" stroke-width="1.1"/><polyline points="84,73 205,226" stroke="#5b7391" stroke-width="1.1"/><polyline points="204,224 266,244" stroke="#5b7391" stroke-width="1.1"/><polyline points="264,209 265,244" stroke="#5b7391" stroke-width="1.1"/><polyline points="37,405 51,397 237,268" stroke="#5b7391" stroke-width="1.1"/><polyline points="51,424 71,415 245,299 267,279" stroke="#5b7391" stroke-width="1.1"/><polyline points="265,279 235,266" stroke="#5b7391" stroke-width="1.1"/><polyline points="432,56 297,196 276,243" stroke="#5b7391" stroke-width="1.1"/><polyline points="473,98 310,258" stroke="#5b7391" stroke-width="1.1"/><polyline points="309,257 275,242" stroke="#5b7391" stroke-width="1.1"/><polyline points="22,374 46,394" stroke="#5b7391" stroke-width="1.1"/><polyline points="44,392 35,400" stroke="#5b7391" stroke-width="1.1"/><polyline points="74,419 202,526" stroke="#5b7391" stroke-width="1.1"/><polyline points="51,427 74,417" stroke="#5b7391" stroke-width="1.1"/><polyline points="234,529 252,329 249,302" stroke="#5b7391" stroke-width="1.1"/><polyline points="263,531 268,478 270,281" stroke="#5b7391" stroke-width="1.1"/><polyline points="248,302 269,280" stroke="#5b7391" stroke-width="1.1"/><polyline points="326,10 298,179 296,190" stroke="#5b7391" stroke-width="1.1"/><polyline points="294,190 271,239" stroke="#5b7391" stroke-width="1.1"/><polyline points="268,238 266,205" stroke="#5b7391" stroke-width="1.1"/><polyline points="266,236 271,236" stroke="#5b7391" stroke-width="1.1"/><polyline points="299,2 266,202 266,206" stroke="#5b7391" stroke-width="1.1"/><polyline points="326,525 317,409 278,283" stroke="#5b7391" stroke-width="1.1"/><polyline points="275,529 270,489 273,284" stroke="#5b7391" stroke-width="1.1"/><polyline points="273,285 278,284" stroke="#5b7391" stroke-width="1.1"/><polyline points="375,511 320,412 282,287" stroke="#5b7391" stroke-width="1.1"/><polyline points="421,485 403,459 288,285" stroke="#5b7391" stroke-width="1.1"/><polyline points="288,285 282,287" stroke="#5b7391" stroke-width="1.1"/><polyline points="428,482 408,458 295,289" stroke="#5b7391" stroke-width="1.1"/><polyline points="453,459 306,292" stroke="#5b7391" stroke-width="1.1"/><polyline points="305,293 294,289" stroke="#5b7391" stroke-width="1.1"/><polyline points="455,455 312,294" stroke="#5b7391" stroke-width="1.1"/><polyline points="476,437 425,388 325,298" stroke="#5b7391" stroke-width="1.1"/><polyline points="325,299 316,296" stroke="#5b7391" stroke-width="1.1"/><polyline points="485,421 429,388 337,302" stroke="#5b7391" stroke-width="1.1"/><polyline points="501,369 455,341 355,308" stroke="#5b7391" stroke-width="1.1"/><polyline points="354,307 338,304" stroke="#5b7391" stroke-width="1.1"/><polyline points="501,369 504,392" stroke="#5b7391" stroke-width="1.1"/><polyline points="507,387 504,359" stroke="#5b7391" stroke-width="1.1"/><polyline points="504,358 517,361" stroke="#5b7391" stroke-width="1.1"/><polyline points="472,101 500,324" stroke="#5b7391" stroke-width="1.1"/><polyline points="501,323 526,328" stroke="#5b7391" stroke-width="1.1"/><polyline points="525,327 505,145" stroke="#5b7391" stroke-width="1.1"/></g><g font-size="9" fill="#64748b" text-anchor="middle"><text x="112.5" y="199" dy="-3" transform="rotate(17.97 112.5 199)">B927</text><text x="196" y="125.5" dy="-3" transform="rotate(50.43 196 125.5)">B153/M131</text><text x="158" y="357" dy="-3" transform="rotate(-33.69 158 357)">R27</text><text x="138" y="472.5" dy="-3" transform="rotate(39.89 138 472.5)">B243</text><text x="269" y="379.5" dy="-3" transform="rotate(-89.42 269 379.5)">G112/M171</text><text x="297.5" y="346" dy="-3" transform="rotate(72.8 297.5 346)">W325</text><text x="301" y="349.5" dy="-3" transform="rotate(73.09 301 349.5)">B939</text><text x="351.5" y="373.5" dy="-3" transform="rotate(56.23 351.5 373.5)">M131</text><text x="383.5" y="374.5" dy="-3" transform="rotate(48.39 383.5 374.5)">G231</text><text x="383" y="345" dy="-3" transform="rotate(43.07 383 345)">W190</text><text x="486" y="212.5" dy="-3" transform="rotate(82.84 486 212.5)">T656</text></g><g font-size="9" fill="#334155" dominant-baseline="hanging"><text x="273" y="250" transform="rotate(0 273 250)">♦ UERO</text><text x="114" y="60" transform="rotate(0 114 60)">▲IDIRA</text><text x="360" y="357" transform="rotate(0 360 357)">▲RELSA</text><text x="145" y="88" transform="rotate(55 145 88)">B153/M131</text><text x="46" y="182" transform="rotate(20 46 182)">B927</text><text x="79" y="387" transform="rotate(-30 79 387)">R27</text><text x="98" y="448" transform="rotate(35 98 448)">B243</text><text x="243" y="511" transform="rotate(-85 243 511)">G112/M171</text><text x="286" y="511" transform="rotate(-95 286 511)">W325</text><text x="385" y="461" transform="rotate(60 385 461)">B939</text><text x="421" y="430" transform="rotate(50 421 430)">M131</text><text x="434" y="413" transform="rotate(45 434 413)">G231</text><text x="463" y="367" transform="rotate(30 463 367)">W190</text><text x="459" y="319" transform="rotate(20 459 319)">B927</text><text x="497" y="254" transform="rotate(-100 497 254)">T656</text><text x="415" y="98" transform="rotate(-50 415 98)">R27</text><text x="289" y="100" transform="rotate(-80 289 100)">G112/M171</text></g><g fill="none" stroke-linecap="round" stroke-linejoin="round"><path d="M270 270 L270.16 270.1 L270.32 270.2 L270.48 270.3 L270.64 270.4 L270.8 270.5 L270.96 270.6 L271.12 270.7 L271.28 270.8 L271.44 270.9 L271.6 271 L271.76 271.1 L271.92 271.2 L272.08 271.3 L272.24 271.4 L272.4 271.5 L272.56 271.6 L272.73 271.7 L272.89 271.8 L273.05 271.9 L273.21 272 L273.37 272.1 L273.53 272.2 L273.69 272.3 L273.85 272.4 L274.01 272.5 L274.17 272.6 L274.33 272.7 L274.49 272.8 L274.65 272.9 L274.81 273 L274.97 273.1 L275.12 273.21 L275.28 273.32 L275.43 273.43 L275.57 273.54 L275.71 273.66 L275.85 273.78 L275.99 273.91 L276.12 274.03 L276.25 274.17 L276.38 274.3 L276.5 274.44 L276.63 274.58 L276.74 274.72 L276.86 274.87 L276.97 275.02 L277.08 275.17 L277.18 275.33 L277.28 275.49 L277.38 275.65 L277.48 275.82 L277.58 275.99 L277.68 276.16 L277.77 276.34 L277.86 276.52 L277.96 276.7 L278.05 276.89 L278.13 277.08 L278.22 277.27 L278.31 277.47 L278.39 277.67 L278.47 277.88 L278.56 278.09 L278.64 278.3 L278.72 278.51 L278.79 278.73 L278.87 278.96 L278.95 279.18 L279.02 279.42 L279.1 279.65 L279.17 279.89 L279.24 280.13 L279.31 280.38 L279.38 280.63 L279.45 280.89 L279.51 281.15 L279.58 281.41 L279.64 281.67 L279.71 281.94 L279.77 282.22 L279.83 282.5 L279.89 282.78 L279.95 283.06 L280.01 283.35 L280.06 283.65 L280.12 283.95 L280.17 284.25 L280.23 284.56 L280.28 284.87 L280.33 285.19 L280.38 285.51 L280.43 285.84 L280.47 286.17 L280.52 286.5 L280.57 286.84 L280.61 287.19 L280.65 287.54 L280.69 287.89 L280.73 288.25 L280.77 288.62 L280.81 288.99 L280.85 289.36 L280.88 289.74 L280.92 290.12 L280.95 290.51 L280.98 290.9 L281.01 291.3 L281.04 291.7 L281.07 292.1 L281.09 292.51 L281.12 292.92 L281.14 293.33 L281.17 293.74 L281.19 294.15 L281.2 294.56 L281.22 294.98 L281.24 295.4 L281.25 295.82 L281.26 296.24 L281.27 296.66 L281.28 297.08 L281.29 297.51 L281.3 297.93 L281.3 298.36 L281.31 298.79 L281.31 299.22 L281.31 299.66 L281.3 300.09 L281.3 300.53 L281.29 300.97 L281.28 301.42 L281.27 301.87 L281.25 302.32 L281.24 302.77 L281.22 303.23 L281.2 303.69 L281.17 304.15 L281.15 304.62 L281.12 305.08 L281.09 305.55 L281.05 306.03 L281.02 306.51 L280.98 306.99 L280.94 307.47 L280.9 307.95 L280.85 308.45 L280.81 308.94 L280.76 309.44 L280.71 309.94 L280.65 310.45 L280.6 310.96 L280.54 311.48 L280.48 312 L280.42 312.53 L280.36 313.05 L280.29 313.59 L280.23 314.13 L280.16 314.67 L280.09 315.22 L280.01 315.77 L279.94 316.32 L279.86 316.88 L279.78 317.44 L279.71 318.01 L279.63 318.58 L279.56 319.15 L279.49 319.73 L279.42 320.31 L279.35 320.89 L279.28 321.48 L279.21 322.06 L279.15 322.66 L279.09 323.25 L279.02 323.85 L278.96 324.45 L278.9 325.05 L278.85 325.66 L278.79 326.27 L278.73 326.89 L278.68 327.5 L278.63 328.12 L278.58 328.74 L278.53 329.35 L278.48 329.96 L278.44 330.57 L278.39 331.18 L278.35 331.78 L278.31 332.39 L278.28 332.99 L278.24 333.58 L278.21 334.18 L278.18 334.78 L278.15 335.36 L278.12 335.94 L278.1 336.51 L278.08 337.08 L278.07 337.63 L278.05 338.17 L278.04 338.71 L278.04 339.23 L278.04 339.75 L278.04 340.26 L278.04 340.76 L278.05 341.25 L278.06 341.73 L278.08 342.2 L278.11 342.65 L278.14 343.1 L278.18 343.53 L278.23 343.94 L278.28 344.35 L278.34 344.75 L278.41 345.13 L278.48 345.5 L278.56 345.85 L278.65 346.2 L278.74 346.54 L278.84 346.87 L278.94 347.19 L279.05 347.52 L279.15 347.83 L279.26 348.15 L279.38 348.45 L279.5 348.76 L279.62 349.05 L279.75 349.35 L279.88 349.63 L280.01 349.92 L280.15 350.2 L280.29 350.47 L280.44 350.74 L280.58 351 L280.74 351.26 L280.89 351.51 L281.05 351.76 L281.21 352.01 L281.37 352.26 L281.53 352.5 L281.69 352.73 L281.85 352.97 L282.01 353.2 L282.17 353.43 L282.33 353.66 L282.49 353.88 L282.65 354.1 L282.82 354.32 L282.98 354.53 L283.14 354.75 L283.31 354.96 L283.47 355.18 L283.63 355.39 L283.8 355.6 L283.96 355.82 L284.13 356.03 L284.3 356.24 L284.46 356.46 L284.63 356.67 L284.79 356.88 L284.96 357.09 L285.13 357.31 L285.3 357.52 L285.46 357.73 L285.63 357.94 L285.8 358.15 L285.97 358.36 L286.14 358.57 L286.31 358.78 L286.48 358.99 L286.65 359.2 L286.82 359.41 L286.99 359.62 L287.16 359.83 L287.33 360.04 L287.5 360.25 L287.67 360.46 L287.84 360.67 L288.01 360.87 L288.19 361.08 L288.36 361.29 L288.53 361.5 L288.7 361.71 L288.88 361.91 L289.05 362.12 L289.22 362.33 L289.4 362.53 L289.57 362.74 L289.74 362.95 L289.92 363.15 L290.09 363.36 L290.26 363.57 L290.44 363.77 L290.61 363.98 L290.78 364.19 L290.95 364.4 L291.12 364.61 L291.3 364.82 L291.47 365.03 L291.63 365.24 L291.8 365.45 L291.97 365.66 L292.14 365.87 L292.31 366.08 L292.47 366.29 L292.64 366.5 L292.81 366.72 L292.97 366.93 L293.14 367.14 L293.3 367.36 L293.47 367.57 L293.63 367.79 L293.79 368 L293.96 368.22 L294.12 368.43 L294.28 368.65 L294.44 368.87 L294.6 369.08 L294.76 369.3 L294.92 369.52 L295.08 369.73 L295.24 369.95" stroke="#ffffff" stroke-width="5" opacity="0.85"/><path d="M270 270 L270.16 270.1 L270.32 270.2 L270.48 270.3 L270.64 270.4 L270.8 270.5 L270.96 270.6 L271.12 270.7 L271.28 270.8 L271.44 270.9 L271.6 271 L271.76 271.1 L271.92 271.2 L272.08 271.3 L272.24 271.4 L272.4 271.5 L272.56 271.6 L272.73 271.7 L272.89 271.8 L273.05 271.9 L273.21 272 L273.37 272.1 L273.53 272.2 L273.69 272.3 L273.85 272.4 L274.01 272.5 L274.17 272.6 L274.33 272.7 L274.49 272.8 L274.65 272.9 L274.81 273 L274.97 273.1 L275.12 273.21 L275.28 273.32 L275.43 273.43 L275.57 273.54 L275.71 273.66 L275.85 273.78 L275.99 273.91 L276.12 274.03 L276.25 274.17 L276.38 274.3 L276.5 274.44 L276.63 274.58 L276.74 274.72 L276.86 274.87 L276.97 275.02 L277.08 275.17 L277.18 275.33 L277.28 275.49 L277.38 275.65 L277.48 275.82 L277.58 275.99 L277.68 276.16 L277.77 276.34 L277.86 276.52 L277.96 276.7 L278.05 276.89 L278.13 277.08 L278.22 277.27 L278.31 277.47 L278.39 277.67 L278.47 277.88 L278.56 278.09 L278.64 278.3 L278.72 278.51 L278.79 278.73 L278.87 278.96 L278.95 279.18 L279.02 279.42 L279.1 279.65 L279.17 279.89 L279.24 280.13 L279.31 280.38 L279.38 280.63 L279.45 280.89 L279.51 281.15 L279.58 281.41 L279.64 281.67 L279.71 281.94 L279.77 282.22 L279.83 282.5 L279.89 282.78 L279.95 283.06 L280.01 283.35 L280.06 283.65 L280.12 283.95 L280.17 284.25 L280.23 284.56 L280.28 284.87 L280.33 285.19 L280.38 285.51 L280.43 285.84 L280.47 286.17 L280.52 286.5 L280.57 286.84 L280.61 287.19 L280.65 287.54 L280.69 287.89 L280.73 288.25 L280.77 288.62 L280.81 288.99 L280.85 289.36 L280.88 289.74 L280.92 290.12 L280.95 290.51 L280.98 290.9 L281.01 291.3 L281.04 291.7 L281.07 292.1 L281.09 292.51 L281.12 292.92 L281.14 293.33 L281.17 293.74 L281.19 294.15 L281.2 294.56 L281.22 294.98 L281.24 295.4 L281.25 295.82 L281.26 296.24 L281.27 296.66 L281.28 297.08 L281.29 297.51 L281.3 297.93 L281.3 298.36 L281.31 298.79 L281.31 299.22 L281.31 299.66 L281.3 300.09 L281.3 300.53 L281.29 300.97 L281.28 301.42 L281.27 301.87 L281.25 302.32 L281.24 302.77 L281.22 303.23 L281.2 303.69 L281.17 304.15 L281.15 304.62 L281.12 305.08 L281.09 305.55 L281.05 306.03 L281.02 306.51 L280.98 306.99 L280.94 307.47 L280.9 307.95 L280.85 308.45 L280.81 308.94 L280.76 309.44 L280.71 309.94 L280.65 310.45 L280.6 310.96 L280.54 311.48 L280.48 312 L280.42 312.53 L280.36 313.05 L280.29 313.59 L280.23 314.13 L280.16 314.67 L280.09 315.22 L280.01 315.77 L279.94 316.32 L279.86 316.88 L279.78 317.44 L279.71 318.01 L279.63 318.58 L279.56 319.15 L279.49 319.73 L279.42 320.31 L279.35 320.89 L279.28 321.48 L279.21 322.06 L279.15 322.66 L279.09 323.25 L279.02 323.85 L278.96 324.45 L278.9 325.05 L278.85 325.66 L278.79 326.27 L278.73 326.89 L278.68 327.5 L278.63 328.12 L278.58 328.74 L278.53 329.35 L278.48 329.96 L278.44 330.57 L278.39 331.18 L278.35 331.78 L278.31 332.39 L278.28 332.99 L278.24 333.58 L278.21 334.18 L278.18 334.78 L278.15 335.36 L278.12 335.94 L278.1 336.51 L278.08 337.08 L278.07 337.63 L278.05 338.17 L278.04 338.71 L278.04 339.23 L278.04 339.75 L278.04 340.26 L278.04 340.76 L278.05 341.25 L278.06 341.73 L278.08 342.2 L278.11 342.65 L278.14 343.1 L278.18 343.53 L278.23 343.94 L278.28 344.35 L278.34 344.75 L278.41 345.13 L278.48 345.5 L278.56 345.85 L278.65 346.2 L278.74 346.54 L278.84 346.87 L278.94 347.19 L279.05 347.52 L279.15 347.83 L279.26 348.15 L279.38 348.45 L279.5 348.76 L279.62 349.05 L279.75 349.35 L279.88 349.63 L280.01 349.92 L280.15 350.2 L280.29 350.47 L280.44 350.74 L280.58 351 L280.74 351.26 L280.89 351.51 L281.05 351.76 L281.21 352.01 L281.37 352.26 L281.53 352.5 L281.69 352.73 L281.85 352.97 L282.01 353.2 L282.17 353.43 L282.33 353.66 L282.49 353.88 L282.65 354.1 L282.82 354.32 L282.98 354.53 L283.14 354.75 L283.31 354.96 L283.47 355.18 L283.63 355.39 L283.8 355.6 L283.96 355.82 L284.13 356.03 L284.3 356.24 L284.46 356.46 L284.63 356.67 L284.79 356.88 L284.96 357.09 L285.13 357.31 L285.3 357.52 L285.46 357.73 L285.63 357.94 L285.8 358.15 L285.97 358.36 L286.14 358.57 L286.31 358.78 L286.48 358.99 L286.65 359.2 L286.82 359.41 L286.99 359.62 L287.16 359.83 L287.33 360.04 L287.5 360.25 L287.67 360.46 L287.84 360.67 L288.01 360.87 L288.19 361.08 L288.36 361.29 L288.53 361.5 L288.7 361.71 L288.88 361.91 L289.05 362.12 L289.22 362.33 L289.4 362.53 L289.57 362.74 L289.74 362.95 L289.92 363.15 L290.09 363.36 L290.26 363.57 L290.44 363.77 L290.61 363.98 L290.78 364.19 L290.95 364.4 L291.12 364.61 L291.3 364.82 L291.47 365.03 L291.63 365.24 L291.8 365.45 L291.97 365.66 L292.14 365.87 L292.31 366.08 L292.47 366.29 L292.64 366.5 L292.81 366.72 L292.97 366.93 L293.14 367.14 L293.3 367.36 L293.47 367.57 L293.63 367.79 L293.79 368 L293.96 368.22 L294.12 368.43 L294.28 368.65 L294.44 368.87 L294.6 369.08 L294.76 369.3 L294.92 369.52 L295.08 369.73 L295.24 369.95" stroke="#eb6834" stroke-width="2.2"/></g><g><circle cx="270" cy="270" r="4.5" fill="#ffffff"/><circle cx="270" cy="270" r="2.6" fill="#0f172a"/></g><g><circle cx="274.81" cy="273" r="8" fill="#eb6834" stroke="#ffffff" stroke-width="1.4"/><text x="274.81" y="273" fill="#ffffff" font-size="9.5" font-weight="700" text-anchor="middle" dominant-baseline="central">1</text><circle cx="278.31" cy="277.47" r="8" fill="#eb6834" stroke="#ffffff" stroke-width="1.4"/><text x="278.31" y="277.47" fill="#ffffff" font-size="9.5" font-weight="700" text-anchor="middle" dominant-baseline="central">2</text><circle cx="280.77" cy="288.62" r="8" fill="#eb6834" stroke="#ffffff" stroke-width="1.4"/><text x="280.77" y="288.62" fill="#ffffff" font-size="9.5" font-weight="700" text-anchor="middle" dominant-baseline="central">3</text><circle cx="281.09" cy="305.55" r="8" fill="#eb6834" stroke="#ffffff" stroke-width="1.4"/><text x="281.09" y="305.55" fill="#ffffff" font-size="9.5" font-weight="700" text-anchor="middle" dominant-baseline="central">4</text><circle cx="278.68" cy="327.5" r="8" fill="#eb6834" stroke="#ffffff" stroke-width="1.4"/><text x="278.68" y="327.5" fill="#ffffff" font-size="9.5" font-weight="700" text-anchor="middle" dominant-baseline="central">5</text><circle cx="281.85" cy="352.97" r="8" fill="#eb6834" stroke="#ffffff" stroke-width="1.4"/><text x="281.85" y="352.97" fill="#ffffff" font-size="9.5" font-weight="700" text-anchor="middle" dominant-baseline="central">6</text><circle cx="295.24" cy="369.95" r="8" fill="#eb6834" stroke="#ffffff" stroke-width="1.4"/><text x="295.24" y="369.95" fill="#ffffff" font-size="9.5" font-weight="700" text-anchor="middle" dominant-baseline="central">7</text></g><g font-size="11" fill="#64748b" dominant-baseline="central"><text x="-40" y="602">до 16,0 км за 53 мин</text><text x="580" y="602" text-anchor="end">1 деление — 10 км, радиус 100 км</text></g></g><g><g font-size="12"><line x1="184" y1="752" x2="598" y2="752" stroke="#e6ebf2"/><rect x="339" y="737" width="10" height="10" rx="2" fill="#2a78d6"/><text x="355" y="742" dominant-baseline="central" font-weight="700" fill="#334155">Факт</text><line x1="614" y1="752" x2="1028" y2="752" stroke="#e6ebf2"/><rect x="769" y="737" width="10" height="10" rx="2" fill="#eb6834"/><text x="785" y="742" dominant-baseline="central" font-weight="700" fill="#334155">Прогноз</text></g><g font-size="12" fill="#64748b"><text x="41" y="764" text-anchor="middle" dominant-baseline="central">№</text><text x="121" y="764" text-anchor="middle" dominant-baseline="central">Высота, км</text><text x="246" y="764" text-anchor="middle" dominant-baseline="central">Время, мин</text><text x="386" y="764" text-anchor="middle" dominant-baseline="central">Азимут, °</text><text x="531" y="764" text-anchor="middle" dominant-baseline="central">Удаление, км</text><text x="676" y="764" text-anchor="middle" dominant-baseline="central">Время, мин</text><text x="816" y="764" text-anchor="middle" dominant-baseline="central">Азимут, °</text><text x="961" y="764" text-anchor="middle" dominant-baseline="central">Удаление, км</text><text x="1156" y="764" text-anchor="middle" dominant-baseline="central">Ошибка, км</text></g><line x1="16" y1="774" x2="1276" y2="774" stroke="#8fa0b3" stroke-width="1"/><g font-size="13" fill="#334155" style="font-variant-numeric: tabular-nums"><text x="41" y="785" text-anchor="middle" dominant-baseline="central">1</text><text x="121" y="785" text-anchor="middle" dominant-baseline="central">1,5</text><text x="246" y="785" text-anchor="middle" dominant-baseline="central">5</text><text x="386" y="785" text-anchor="middle" dominant-baseline="central">118</text><text x="531" y="785" text-anchor="middle" dominant-baseline="central">2,1</text><text x="676" y="785" text-anchor="middle" dominant-baseline="central">5</text><text x="816" y="785" text-anchor="middle" dominant-baseline="central">122</text><text x="961" y="785" text-anchor="middle" dominant-baseline="central">2,1</text><text x="1156" y="785" text-anchor="middle" dominant-baseline="central" font-weight="700">0,2</text></g><line x1="16" y1="796" x2="1276" y2="796" stroke="#e6ebf2" stroke-width="1"/><g font-size="13" fill="#334155" style="font-variant-numeric: tabular-nums"><text x="41" y="807" text-anchor="middle" dominant-baseline="central">2</text><text x="121" y="807" text-anchor="middle" dominant-baseline="central">3,0</text><text x="246" y="807" text-anchor="middle" dominant-baseline="central">10</text><text x="386" y="807" text-anchor="middle" dominant-baseline="central">139</text><text x="531" y="807" text-anchor="middle" dominant-baseline="central">3,9</text><text x="676" y="807" text-anchor="middle" dominant-baseline="central">10</text><text x="816" y="807" text-anchor="middle" dominant-baseline="central">132</text><text x="961" y="807" text-anchor="middle" dominant-baseline="central">4,1</text><text x="1156" y="807" text-anchor="middle" dominant-baseline="central" font-weight="700">0,6</text></g><line x1="16" y1="818" x2="1276" y2="818" stroke="#e6ebf2" stroke-width="1"/><g font-size="13" fill="#334155" style="font-variant-numeric: tabular-nums"><text x="41" y="829" text-anchor="middle" dominant-baseline="central">3</text><text x="121" y="829" text-anchor="middle" dominant-baseline="central">5,0</text><text x="246" y="829" text-anchor="middle" dominant-baseline="central">17</text><text x="386" y="829" text-anchor="middle" dominant-baseline="central">160</text><text x="531" y="829" text-anchor="middle" dominant-baseline="central">8,4</text><text x="676" y="829" text-anchor="middle" dominant-baseline="central">17</text><text x="816" y="829" text-anchor="middle" dominant-baseline="central">150</text><text x="961" y="829" text-anchor="middle" dominant-baseline="central">8,0</text><text x="1156" y="829" text-anchor="middle" dominant-baseline="central" font-weight="700">1,5</text></g><line x1="16" y1="840" x2="1276" y2="840" stroke="#e6ebf2" stroke-width="1"/><g font-size="13" fill="#334155" style="font-variant-numeric: tabular-nums"><text x="41" y="851" text-anchor="middle" dominant-baseline="central">4</text><text x="121" y="851" text-anchor="middle" dominant-baseline="central">7,0</text><text x="246" y="851" text-anchor="middle" dominant-baseline="central">23</text><text x="386" y="851" text-anchor="middle" dominant-baseline="central">170</text><text x="531" y="851" text-anchor="middle" dominant-baseline="central">15,0</text><text x="676" y="851" text-anchor="middle" dominant-baseline="central">23</text><text x="816" y="851" text-anchor="middle" dominant-baseline="central">163</text><text x="961" y="851" text-anchor="middle" dominant-baseline="central">13,8</text><text x="1156" y="851" text-anchor="middle" dominant-baseline="central" font-weight="700">2,3</text></g><line x1="16" y1="862" x2="1276" y2="862" stroke="#e6ebf2" stroke-width="1"/><g font-size="13" fill="#334155" style="font-variant-numeric: tabular-nums"><text x="41" y="873" text-anchor="middle" dominant-baseline="central">5</text><text x="121" y="873" text-anchor="middle" dominant-baseline="central">9,0</text><text x="246" y="873" text-anchor="middle" dominant-baseline="central">30</text><text x="386" y="873" text-anchor="middle" dominant-baseline="central">178</text><text x="531" y="873" text-anchor="middle" dominant-baseline="central">23,7</text><text x="676" y="873" text-anchor="middle" dominant-baseline="central">30</text><text x="816" y="873" text-anchor="middle" dominant-baseline="central">171</text><text x="961" y="873" text-anchor="middle" dominant-baseline="central">21,5</text><text x="1156" y="873" text-anchor="middle" dominant-baseline="central" font-weight="700">3,3</text></g><line x1="16" y1="884" x2="1276" y2="884" stroke="#e6ebf2" stroke-width="1"/><g font-size="13" fill="#334155" style="font-variant-numeric: tabular-nums"><text x="41" y="895" text-anchor="middle" dominant-baseline="central">6</text><text x="121" y="895" text-anchor="middle" dominant-baseline="central">12,0</text><text x="246" y="895" text-anchor="middle" dominant-baseline="central">40</text><text x="386" y="895" text-anchor="middle" dominant-baseline="central">175</text><text x="531" y="895" text-anchor="middle" dominant-baseline="central">31,4</text><text x="676" y="895" text-anchor="middle" dominant-baseline="central">40</text><text x="816" y="895" text-anchor="middle" dominant-baseline="central">172</text><text x="961" y="895" text-anchor="middle" dominant-baseline="central">31,0</text><text x="1156" y="895" text-anchor="middle" dominant-baseline="central" font-weight="700">1,8</text></g><line x1="16" y1="906" x2="1276" y2="906" stroke="#e6ebf2" stroke-width="1"/><g font-size="13" fill="#334155" style="font-variant-numeric: tabular-nums"><text x="41" y="917" text-anchor="middle" dominant-baseline="central">7</text><text x="121" y="917" text-anchor="middle" dominant-baseline="central">16,0</text><text x="246" y="917" text-anchor="middle" dominant-baseline="central">53</text><text x="386" y="917" text-anchor="middle" dominant-baseline="central">169</text><text x="531" y="917" text-anchor="middle" dominant-baseline="central">37,5</text><text x="676" y="917" text-anchor="middle" dominant-baseline="central">53</text><text x="816" y="917" text-anchor="middle" dominant-baseline="central">166</text><text x="961" y="917" text-anchor="middle" dominant-baseline="central">38,2</text><text x="1156" y="917" text-anchor="middle" dominant-baseline="central" font-weight="700">2,1</text></g><line x1="16" y1="928" x2="1276" y2="928" stroke="#8fa0b3" stroke-width="1"/><text x="16" y="945" font-size="13" fill="#334155" dominant-baseline="central">Ошибка положения на высотах отчёта: средняя 1,7 км · RMSE 2,0 км · максимум 3,3 км</text><g><text x="16" y="986" font-size="14" font-weight="700" fill="#334155" dominant-baseline="central">Пересечение воздушных трасс — планшет «Оленек»</text><g font-size="12" fill="#64748b"><text x="91.6" y="1012" text-anchor="middle" dominant-baseline="central">Трасса</text><text x="278.08" y="1012" text-anchor="middle" dominant-baseline="central">Факт: высоты</text><text x="489.76" y="1012" text-anchor="middle" dominant-baseline="central">Факт: время, UTC</text><text x="701.44" y="1012" text-anchor="middle" dominant-baseline="central">Прогноз: высоты</text><text x="913.12" y="1012" text-anchor="middle" dominant-baseline="central">Прогноз: время, UTC</text><text x="1144.96" y="1012" text-anchor="middle" dominant-baseline="central">Итог</text></g><line x1="16" y1="1024" x2="1276" y2="1024" stroke="#8fa0b3"/><g font-size="13" fill="#334155" style="font-variant-numeric: tabular-nums"><text x="91.6" y="1035" text-anchor="middle" dominant-baseline="central" font-weight="700">B927</text><text x="278.08" y="1035" text-anchor="middle" dominant-baseline="central">3066 м</text><text x="489.76" y="1035" text-anchor="middle" dominant-baseline="central">23:40</text><text x="701.44" y="1035" text-anchor="middle" dominant-baseline="central">3379 м</text><text x="913.12" y="1035" text-anchor="middle" dominant-baseline="central">23:41</text><text x="1144.96" y="1035" text-anchor="middle" dominant-baseline="central" font-weight="700">совпало</text></g><line x1="16" y1="1046" x2="1276" y2="1046" stroke="#e6ebf2"/><g font-size="13" fill="#334155" style="font-variant-numeric: tabular-nums"><text x="91.6" y="1057" text-anchor="middle" dominant-baseline="central" font-weight="700">W325</text><text x="278.08" y="1057" text-anchor="middle" dominant-baseline="central">4045 – 10327 м</text><text x="489.76" y="1057" text-anchor="middle" dominant-baseline="central">23:43 – 00:04</text><text x="701.44" y="1057" text-anchor="middle" dominant-baseline="central">5574 м</text><text x="913.12" y="1057" text-anchor="middle" dominant-baseline="central">23:48</text><text x="1144.96" y="1057" text-anchor="middle" dominant-baseline="central" font-weight="700">совпало</text></g><line x1="16" y1="1068" x2="1276" y2="1068" stroke="#8fa0b3"/></g></g></svg>